<?xml version="1.0" standalone="no"?>
<!DOCTYPE svg PUBLIC "-//W3C//DTD SVG 20010904//EN"
 "http://www.w3.org/TR/2001/REC-SVG-20010904/DTD/svg10.dtd">
<svg version="1.0" xmlns="http://www.w3.org/2000/svg"
 width="2480.000000pt" height="577.000000pt" viewBox="0 0 2480.000000 577.000000"
 preserveAspectRatio="xMidYMid meet">

<g transform="translate(0.000000,577.000000) scale(0.100000,-0.100000)"
fill="#000000" stroke="none">
<path d="M9523 5540 c-68 -16 -121 -71 -146 -155 -14 -46 -25 -486 -31 -1260
0 -53 7 -120 17 -163 16 -68 16 -79 0 -190 -9 -64 -15 -151 -13 -192 5 -100 6
-488 1 -670 -2 -80 -4 -188 -4 -240 0 -52 -1 -140 -1 -195 -1 -55 0 -127 1
-160 1 -33 2 -82 2 -110 0 -27 0 -81 1 -120 1 -97 1 -111 -2 -190 -2 -38 -3
-178 -3 -310 1 -196 4 -247 17 -281 12 -30 14 -52 7 -85 -4 -24 -8 -175 -9
-336 0 -161 -5 -337 -11 -392 l-12 -100 34 -58 c19 -31 52 -76 75 -100 l41
-43 279 0 c309 0 358 7 406 57 15 16 35 46 45 68 17 37 18 94 21 828 l3 788
182 -3 c170 -3 185 -5 232 -28 69 -34 129 -99 172 -188 l36 -76 -8 -255 c-4
-141 -7 -266 -6 -278 4 -52 2 -102 -4 -176 -5 -48 -3 -112 5 -168 8 -61 9 -94
2 -102 -7 -8 -7 -28 1 -60 7 -34 7 -70 0 -127 -12 -91 -3 -156 28 -206 41 -66
53 -69 362 -72 321 -4 363 3 416 63 63 72 63 70 58 842 -3 620 -5 706 -21 773
-40 172 -105 329 -187 453 -22 32 -39 62 -39 66 0 5 21 39 46 77 84 126 138
252 177 419 20 86 21 120 24 820 3 494 1 757 -7 813 -24 182 -110 395 -236
584 -62 94 -69 101 -186 178 -147 99 -287 170 -422 215 -136 46 -229 56 -385
43 -73 -6 -199 -7 -301 -3 -96 4 -183 6 -192 5 -10 0 -34 -1 -53 -1 -19 0 -43
-1 -52 -1 -69 -4 -246 -1 -283 4 -25 3 -60 2 -77 -2z m617 -395 c0 -14 -4 -25
-10 -25 -5 0 -10 11 -10 25 0 14 5 25 10 25 6 0 10 -11 10 -25z m633 -12 c12
-7 -1 -22 -34 -38 l-29 -16 0 36 c0 34 1 35 28 29 15 -4 30 -9 35 -11z m-893
-52 c14 -27 13 -91 -2 -91 -25 0 -48 34 -48 72 0 31 4 38 20 38 10 0 24 -9 30
-19z m398 -10 c20 -12 12 -85 -10 -89 -15 -3 -18 4 -18 47 0 51 4 58 28 42z
m-198 -81 c0 -50 0 -50 -32 -50 -18 -1 -51 -7 -73 -15 -54 -20 -55 -20 -55 20
0 21 5 35 13 35 6 0 39 13 72 29 33 16 63 30 68 30 4 1 7 -21 7 -49z m100
-120 c0 -5 -9 -10 -20 -10 -11 0 -20 5 -20 10 0 6 9 10 20 10 11 0 20 -4 20
-10z m70 -20 c0 -5 -7 -10 -15 -10 -8 0 -15 5 -15 10 0 6 7 10 15 10 8 0 15
-4 15 -10z m409 -3 c12 -15 5 -27 -16 -27 -7 0 -13 9 -13 20 0 23 13 26 29 7z
m-955 -114 c-12 -57 -16 -63 -35 -63 -16 0 -19 7 -19 45 0 43 1 45 30 45 28 0
30 -2 24 -27z m276 12 c0 -8 -4 -15 -10 -15 -5 0 -10 7 -10 15 0 8 5 15 10 15
6 0 10 -7 10 -15z m1080 -16 c0 -28 -18 -59 -34 -59 -16 0 -26 22 -26 56 0 20
5 24 30 24 24 0 30 -4 30 -21z m-1201 -62 c7 -32 11 -61 7 -64 -3 -4 -22 1
-42 10 -35 17 -35 19 -29 60 9 53 13 59 33 55 12 -2 22 -22 31 -61z m774 -26
c70 -28 144 -95 193 -176 l36 -60 -8 -415 c-4 -228 -6 -435 -4 -460 4 -59 4
-99 -5 -310 -7 -166 -9 -178 -37 -233 -36 -72 -98 -141 -153 -170 -35 -19 -56
-22 -155 -21 -97 0 -126 5 -185 26 l-70 25 -3 913 -2 912 167 -4 c143 -4 177
-8 226 -27z m600 -10 c23 -39 22 -61 -3 -61 -13 0 -24 10 -30 26 -24 62 1 88
33 35z m157 -71 c0 -16 -4 -30 -10 -30 -5 0 -10 14 -10 30 0 17 5 30 10 30 6
0 10 -13 10 -30z m-40 -40 c0 -5 -18 -10 -40 -10 -22 0 -40 5 -40 10 0 6 18
10 40 10 22 0 40 -4 40 -10z m-1410 -30 c0 -13 -7 -20 -20 -20 -18 0 -19 3
-10 20 6 11 15 20 20 20 6 0 10 -9 10 -20z m-170 -290 c0 -23 -10 -26 -28 -8
-18 18 -15 28 8 28 13 0 20 -7 20 -20z m1560 -74 c0 -22 -40 -66 -61 -66 -14
0 -19 7 -19 28 0 15 5 33 12 40 17 17 68 15 68 -2z m-200 -66 c0 -11 -4 -20
-10 -20 -5 0 -10 9 -10 20 0 11 5 20 10 20 6 0 10 -9 10 -20z m260 -214 c0 -2
-3 -11 -6 -20 -9 -23 -34 -20 -34 4 0 13 7 20 20 20 11 0 20 -2 20 -4z m-1660
-204 c0 -10 -22 -32 -32 -32 -4 0 -8 9 -8 20 0 13 7 20 20 20 11 0 20 -4 20
-8z m0 -212 c0 -6 -14 -10 -30 -10 -28 0 -30 2 -20 20 9 16 15 18 30 10 11 -6
20 -15 20 -20z m1528 -122 c19 -19 15 -48 -8 -48 -16 0 -20 7 -20 30 0 32 9
37 28 18z m-128 -168 c0 -23 -4 -24 -31 -10 -27 15 -24 30 6 30 18 0 25 -5 25
-20z m-1280 -34 c0 -8 -4 -18 -10 -21 -5 -3 -10 3 -10 14 0 12 5 21 10 21 6 0
10 -6 10 -14z m1300 -27 c0 -11 -4 -17 -10 -14 -5 3 -10 13 -10 21 0 8 5 14
10 14 6 0 10 -9 10 -21z m-1260 -184 c0 -9 7 -18 15 -21 8 -4 12 -10 9 -16 -7
-10 -109 -78 -119 -78 -3 0 -5 20 -5 45 0 44 2 47 43 65 51 24 57 24 57 5z
m1283 -177 c15 -20 18 -35 13 -62 -7 -37 -13 -39 -73 -20 -18 5 -16 49 3 85
17 34 30 34 57 -3z m-1213 4 c0 -4 -13 -29 -30 -55 -48 -75 -80 -57 -42 24 14
31 22 39 45 39 15 0 27 -4 27 -8z m113 -19 c40 -20 27 -27 -38 -18 -46 5 -55
10 -55 27 0 17 4 19 33 13 17 -4 45 -14 60 -22z m-158 -123 c-5 -14 -2 -20 9
-20 9 0 16 6 16 14 0 51 60 9 86 -61 16 -40 16 -46 1 -60 -14 -14 -23 -14 -79
-3 -93 18 -138 44 -138 79 0 23 7 32 33 44 70 32 80 33 72 7z m1085 0 c0 -11
-4 -20 -10 -20 -5 0 -10 9 -10 20 0 11 5 20 10 20 6 0 10 -9 10 -20z m-532
-87 c-2 -17 -10 -29 -20 -31 -14 -3 -18 3 -18 27 0 25 4 31 21 31 16 0 20 -5
17 -27z m520 -46 c17 -47 17 -47 -38 -47 -58 0 -64 12 -25 54 32 35 48 33 63
-7z m162 -11 c0 -24 -16 -36 -51 -36 -12 0 -19 7 -19 18 0 25 19 42 47 42 18
0 23 -6 23 -24z m-985 -48 c4 -18 9 -41 11 -50 4 -14 -1 -18 -26 -18 -30 0
-31 1 -25 38 4 20 8 43 10 50 8 23 23 12 30 -20z m555 17 c-8 -8 -32 -21 -52
-30 l-38 -15 0 30 c0 30 1 30 52 30 46 0 50 -2 38 -15z m-390 -19 c0 -35 -14
-76 -26 -76 -11 0 -54 67 -54 85 0 3 18 5 40 5 27 0 40 -4 40 -14z m-520 -16
c0 -5 -9 -10 -20 -10 -11 0 -20 5 -20 10 0 6 9 10 20 10 11 0 20 -4 20 -10z
m199 -56 c79 -45 91 -61 91 -117 l0 -49 -42 37 c-123 108 -139 127 -127 141
16 19 26 18 78 -12z m-159 -63 c0 -38 3 -76 6 -85 5 -12 0 -16 -20 -16 -19 0
-29 7 -36 25 -5 14 -17 25 -26 25 -8 0 -14 3 -12 8 36 82 55 112 70 112 15 0
18 -10 18 -69z m1404 63 c22 -8 20 -31 -4 -44 -18 -10 -20 -8 -20 20 0 32 1
33 24 24z m-259 -36 c-11 -35 -21 -41 -39 -23 -26 26 -20 45 15 45 27 0 30 -3
24 -22z m-725 -8 c0 -5 -7 -10 -15 -10 -8 0 -15 5 -15 10 0 6 7 10 15 10 8 0
15 -4 15 -10z m-36 -66 c11 -29 6 -34 -34 -34 -32 0 -40 4 -40 18 0 25 9 32
41 32 15 0 29 -7 33 -16z m876 -57 c0 -69 -2 -74 -26 -85 -32 -15 -64 0 -64
29 0 31 29 87 58 109 13 11 26 20 28 20 2 0 4 -33 4 -73z m-254 6 c-11 -11
-19 6 -11 24 8 17 8 17 12 0 3 -10 2 -21 -1 -24z m84 -23 c0 -11 -4 -20 -10
-20 -5 0 -10 9 -10 20 0 11 5 20 10 20 6 0 10 -9 10 -20z m-956 -46 c13 -5 16
-23 16 -90 l0 -83 -42 15 c-52 18 -88 50 -88 78 0 12 9 36 20 54 20 32 53 42
94 26z m-114 -158 c0 -4 -108 -56 -116 -56 -2 0 -4 14 -4 30 l0 30 60 0 c33 0
60 -2 60 -4z m1230 -16 c0 -10 -9 -24 -20 -30 -18 -10 -20 -8 -20 20 0 23 4
30 20 30 13 0 20 -7 20 -20z m-1080 -110 c0 -17 -7 -20 -42 -20 l-43 1 24 19
c31 26 61 26 61 0z m-310 -110 c0 -5 -9 -10 -20 -10 -11 0 -20 5 -20 10 0 6 9
10 20 10 11 0 20 -4 20 -10z m250 -184 c0 -8 -7 -17 -16 -20 -23 -9 -24 -8
-24 14 0 13 7 20 20 20 11 0 20 -6 20 -14z m-210 -56 c0 -5 -9 -10 -20 -10
-11 0 -20 5 -20 10 0 6 9 10 20 10 11 0 20 -4 20 -10z m1580 -177 c0 -10 -5
-25 -10 -33 -13 -20 -44 -2 -48 29 -3 18 2 21 27 21 23 0 31 -5 31 -17z m25
-88 c3 -14 7 -36 10 -50 5 -22 2 -25 -23 -25 l-29 0 10 50 c11 54 24 65 32 25z
m-1585 -15 c0 -11 -4 -20 -10 -20 -5 0 -10 9 -10 20 0 11 5 20 10 20 6 0 10
-9 10 -20z m1420 -450 c0 -11 -4 -20 -10 -20 -5 0 -10 9 -10 20 0 11 5 20 10
20 6 0 10 -9 10 -20z m220 -25 c0 -32 -21 -32 -57 0 l-28 24 43 1 c38 0 42 -2
42 -25z"/>
<path d="M19050 5539 c-98 -10 -223 -36 -261 -55 -43 -22 -105 -100 -128 -162
-11 -31 -129 -552 -260 -1157 -132 -605 -258 -1170 -280 -1255 -21 -85 -44
-198 -51 -250 -6 -52 -43 -234 -81 -405 -80 -363 -159 -749 -159 -785 0 -14
-59 -268 -130 -565 l-129 -540 34 -55 c18 -30 52 -68 75 -85 l42 -30 281 -3
c241 -2 288 -1 324 13 89 34 156 156 194 356 12 62 23 120 25 127 3 9 117 12
527 12 l524 0 6 -42 c4 -28 14 -50 30 -63 18 -15 27 -38 36 -85 30 -163 84
-269 154 -300 38 -18 67 -20 283 -20 263 0 337 9 402 47 48 27 81 85 82 140 0
97 -269 1370 -840 3973 -89 404 -168 781 -175 838 -24 180 -87 275 -213 322
-50 19 -173 41 -212 38 -8 0 -53 -4 -100 -9z m87 -634 c5 -16 -22 -55 -39 -55
-4 0 -8 16 -8 35 0 29 4 35 20 35 11 0 23 -7 27 -15z m-209 -57 c-6 -18 -28
-21 -28 -4 0 9 7 16 16 16 9 0 14 -5 12 -12z m58 -115 c-3 -10 -1 -24 3 -32 8
-12 12 -12 25 -2 9 8 16 22 16 32 0 17 8 19 63 19 75 0 100 -14 95 -54 -5 -45
-26 -52 -115 -39 -70 10 -82 10 -121 -7 -32 -14 -49 -17 -67 -10 -48 18 -25
72 40 95 54 19 67 19 61 -2z m146 -248 c16 -11 13 -19 -34 -95 -28 -45 -59
-85 -69 -87 -19 -5 -25 -21 -31 -73 -4 -32 -38 -41 -38 -10 0 11 7 37 15 57
11 25 12 40 5 47 -17 17 -11 36 12 36 41 0 58 28 58 96 l0 63 33 -11 c17 -6
40 -16 49 -23z m-142 -55 c0 -42 -3 -50 -19 -50 -14 0 -20 10 -25 38 -9 57 -8
62 19 62 23 0 25 -3 25 -50z m-70 -160 c0 -16 -4 -30 -10 -30 -5 0 -10 14 -10
30 0 17 5 30 10 30 6 0 10 -13 10 -30z m345 -21 l80 -11 -9 -93 c-12 -119 -7
-137 44 -160 37 -17 40 -21 40 -57 0 -45 -13 -48 -77 -17 -54 26 -93 88 -93
146 0 32 4 42 20 46 46 12 2 97 -50 97 -23 0 -27 -3 -23 -20 4 -15 0 -20 -13
-20 -20 0 -119 -53 -128 -69 -3 -5 -3 -17 0 -26 6 -14 16 -16 51 -12 39 4 43
2 43 -17 0 -78 45 -139 114 -157 25 -6 46 -14 46 -18 0 -3 -9 -17 -20 -31 -24
-31 -27 -98 -4 -107 10 -3 29 8 54 32 29 28 43 35 59 30 23 -7 25 -21 12 -97
-6 -38 -4 -53 11 -75 28 -44 23 -53 -28 -53 -41 0 -45 2 -39 20 5 14 2 20 -9
20 -9 0 -16 -9 -16 -20 0 -34 -17 -22 -48 33 -59 103 -97 118 -199 76 -94 -40
-113 -58 -103 -101 13 -56 21 -67 56 -80 52 -18 45 -44 -13 -51 -43 -5 -50 -3
-71 21 -18 22 -24 24 -31 13 -8 -12 -12 -12 -25 -2 -18 15 -21 74 -7 133 6 26
5 39 -3 42 -7 3 -7 8 3 14 12 8 10 16 -8 45 l-21 35 25 6 c23 6 24 9 18 51 -8
62 21 95 84 95 53 0 56 -16 13 -80 -16 -25 -30 -51 -30 -57 0 -18 70 -16 94 2
11 8 30 15 43 15 20 0 23 5 23 38 0 40 -14 62 -40 62 -9 0 -29 26 -48 66 -21
42 -43 71 -62 82 -46 26 -39 51 32 108 35 27 72 64 83 81 23 37 42 40 170 22z
m-460 -251 c-5 -23 -12 -28 -35 -28 -31 0 -55 23 -46 45 3 8 20 24 38 35 l33
20 8 -22 c4 -12 5 -34 2 -50z m115 2 c0 -16 -4 -30 -10 -30 -5 0 -10 14 -10
30 0 17 5 30 10 30 6 0 10 -13 10 -30z m-120 -150 c0 -11 -4 -20 -10 -20 -5 0
-10 9 -10 20 0 11 5 20 10 20 6 0 10 -9 10 -20z m696 -170 c-20 -22 -36 -45
-36 -50 0 -6 -4 -10 -10 -10 -11 0 -14 83 -3 93 3 4 24 7 46 7 l39 0 -36 -40z
m-326 -72 c0 -29 -4 -60 -10 -68 -6 -10 -2 -19 17 -31 14 -9 34 -30 44 -45 30
-46 124 -40 99 6 -17 32 -12 50 15 50 25 0 25 -1 19 -56 -9 -73 4 -84 98 -84
66 0 68 -1 68 -25 0 -19 -5 -25 -22 -25 -13 0 -29 4 -36 9 -8 5 -44 -4 -93
-22 -74 -29 -83 -30 -142 -20 -39 6 -74 7 -96 1 -26 -8 -37 -6 -49 6 -14 13
-12 22 17 81 29 59 31 69 21 100 -6 19 -21 41 -32 49 -16 12 -19 21 -13 48 9
42 42 78 72 78 21 0 23 -4 23 -52z m430 -108 c0 -22 -4 -40 -10 -40 -5 0 -10
18 -10 40 0 22 5 40 10 40 6 0 10 -18 10 -40z m-746 -35 c-10 -25 -34 -17 -34
10 0 22 3 24 20 15 11 -6 17 -16 14 -25z m746 -41 c0 -8 -4 -14 -10 -14 -5 0
-10 9 -10 21 0 11 5 17 10 14 6 -3 10 -13 10 -21z m-900 -4 c0 -5 -9 -10 -21
-10 -11 0 -17 5 -14 10 3 6 13 10 21 10 8 0 14 -4 14 -10z m291 -20 c10 -6 19
-17 19 -25 0 -11 -13 -15 -55 -15 -41 0 -55 4 -55 15 0 29 54 44 91 25z m-172
-77 c41 -56 41 -57 41 -145 0 -82 -1 -88 -20 -88 -11 0 -37 -7 -57 -15 -20 -8
-38 -13 -41 -11 -2 3 1 33 7 67 7 41 7 67 0 80 -6 13 -6 19 1 19 20 0 9 43
-20 80 -42 53 -40 70 9 70 37 0 43 -4 80 -57z m231 -73 c0 -11 -4 -20 -10 -20
-5 0 -10 9 -10 20 0 11 5 20 10 20 6 0 10 -9 10 -20z m80 -10 c0 -16 -4 -30
-10 -30 -5 0 -10 14 -10 30 0 17 5 30 10 30 6 0 10 -13 10 -30z m252 -117 c18
-16 41 -38 51 -50 18 -22 20 -22 55 -7 82 36 92 28 41 -31 -26 -30 -38 -35
-73 -35 -23 0 -51 7 -62 15 -25 19 -51 19 -62 -1 -7 -13 -14 -14 -28 -6 -13 7
-26 7 -37 1 -13 -8 -17 -6 -17 5 0 8 13 19 30 24 38 14 59 55 42 83 -16 25
-15 29 7 29 11 0 34 -12 53 -27z m-282 -32 c5 -11 15 -43 21 -73 6 -29 26 -98
44 -153 41 -126 100 -377 176 -756 51 -254 59 -312 59 -406 l0 -110 -167 -16
c-278 -27 -282 -27 -387 -2 -54 13 -99 25 -101 26 -2 3 176 883 294 1452 10
45 16 57 31 57 11 0 24 -9 30 -19z m205 -121 c4 -6 -7 -10 -24 -10 -17 0 -31
5 -31 10 0 6 11 10 24 10 14 0 28 -4 31 -10z m-517 -42 c21 -21 13 -28 -28
-28 -33 0 -40 3 -40 20 0 15 7 20 28 20 15 0 33 -5 40 -12z m-200 -119 c-18
-12 -23 17 -6 38 12 15 13 14 16 -7 2 -12 -2 -27 -10 -31z m212 41 c0 -5 -9
-10 -20 -10 -11 0 -20 5 -20 10 0 6 9 10 20 10 11 0 20 -4 20 -10z m-140 -125
c0 -9 -9 -15 -21 -15 -18 0 -19 2 -9 15 7 8 16 15 21 15 5 0 9 -7 9 -15z
m1094 -48 c17 -12 17 -15 -4 -50 -12 -20 -26 -37 -31 -37 -5 0 -9 20 -9 43 0
58 10 69 44 44z m-1074 -217 c0 -5 -9 -10 -20 -10 -11 0 -20 5 -20 10 0 6 9
10 20 10 11 0 20 -4 20 -10z m1190 -10 c0 -11 -4 -20 -10 -20 -5 0 -10 9 -10
20 0 11 5 20 10 20 6 0 10 -9 10 -20z m-1340 -276 c0 -8 -4 -14 -10 -14 -5 0
-10 9 -10 21 0 11 5 17 10 14 6 -3 10 -13 10 -21z m1340 -34 c0 -11 -4 -20
-10 -20 -5 0 -10 9 -10 20 0 11 5 20 10 20 6 0 10 -9 10 -20z m-1600 -261 c0
-26 -3 -30 -22 -27 -17 2 -24 11 -26 31 -3 23 0 27 22 27 22 0 26 -4 26 -31z
m1500 -66 c0 -52 -19 -55 -34 -5 -11 38 -2 64 19 56 10 -4 15 -20 15 -51z
m-1460 -103 c0 -15 -7 -20 -25 -20 -18 0 -25 5 -25 20 0 15 7 20 25 20 18 0
25 -5 25 -20z m220 -75 c0 -8 -4 -15 -10 -15 -5 0 -10 7 -10 15 0 8 5 15 10
15 6 0 10 -7 10 -15z m1140 -56 c0 -38 -2 -41 -22 -35 -13 3 -29 6 -35 6 -8 0
-13 14 -13 35 0 33 2 35 35 35 34 0 35 -1 35 -41z m-1125 -19 c-3 -5 -13 -10
-21 -10 -8 0 -14 5 -14 10 0 6 9 10 21 10 11 0 17 -4 14 -10z m1285 0 c0 -5
-9 -10 -20 -10 -11 0 -20 5 -20 10 0 6 9 10 20 10 11 0 20 -4 20 -10z m100
-60 c0 -11 -4 -20 -10 -20 -5 0 -10 9 -10 20 0 11 5 20 10 20 6 0 10 -9 10
-20z m-1572 -30 c30 -13 32 -18 32 -62 0 -26 -2 -48 -5 -48 -16 0 -63 31 -69
45 -9 23 -8 88 2 83 4 -3 22 -11 40 -18z m258 -76 c-6 -49 -22 -84 -36 -84 -6
0 -10 7 -10 15 0 8 -25 32 -56 52 l-56 37 53 14 c30 7 58 17 63 22 5 5 17 5
29 -1 16 -9 19 -18 13 -55z m1194 -6 c0 -7 -4 -19 -9 -27 -6 -10 -5 -19 3 -25
7 -6 23 -36 36 -66 30 -73 37 -80 76 -80 l34 0 0 55 c0 40 4 55 14 55 21 0 26
-23 26 -119 l0 -87 -30 -11 c-30 -11 -50 -45 -50 -85 0 -11 14 -49 31 -84 38
-76 35 -114 -9 -114 -24 0 -33 10 -76 91 -26 49 -47 91 -45 93 2 1 16 7 32 14
23 10 27 17 27 52 0 28 -8 52 -24 73 -60 81 -106 227 -82 265 10 16 46 16 46
0z m-1690 -48 c0 -11 -4 -20 -10 -20 -5 0 -10 9 -10 20 0 11 5 20 10 20 6 0
10 -9 10 -20z m350 -10 c0 -18 -39 -31 -60 -20 -32 17 -23 30 20 30 22 0 40
-4 40 -10z m680 -70 c0 -33 -3 -40 -20 -40 -17 0 -20 7 -20 40 0 33 3 40 20
40 17 0 20 -7 20 -40z m234 -26 c9 -3 16 -12 16 -19 0 -24 -41 -65 -65 -65
-23 0 -23 1 -10 28 8 15 16 35 19 45 6 18 15 21 40 11z m-1014 -59 c0 -43 -1
-45 -30 -45 -26 0 -50 21 -50 44 0 7 62 46 73 46 4 0 7 -20 7 -45z m310 30 c0
-10 -10 -15 -31 -15 -27 0 -30 2 -19 15 7 8 21 15 31 15 11 0 19 -7 19 -15z
m928 -27 c7 -34 5 -50 -10 -78 -10 -19 -18 -40 -18 -47 0 -18 -20 -16 -42 4
-32 29 -20 85 30 146 23 26 30 21 40 -25z m-1074 16 c19 -18 21 -55 4 -72 -19
-19 -58 -15 -58 7 0 10 -3 33 -6 50 -6 28 -4 31 19 31 14 0 33 -7 41 -16z
m-434 -28 c0 -2 -3 -11 -6 -20 -9 -23 -34 -20 -34 4 0 13 7 20 20 20 11 0 20
-2 20 -4z m1590 -27 c0 -29 -2 -30 -17 -18 -40 31 -43 49 -8 49 21 0 25 -5 25
-31z m-910 -11 c28 -45 25 -58 -10 -58 -29 0 -30 2 -30 45 0 53 13 57 40 13z
m-384 -73 c6 -27 7 -45 1 -45 -5 0 -7 -9 -3 -20 3 -11 9 -29 12 -40 5 -16 2
-20 -19 -20 -32 0 -41 14 -27 41 10 17 8 25 -11 45 -12 13 -30 26 -41 30 -10
3 -18 14 -18 24 0 20 16 27 65 29 28 1 31 -2 41 -44z m524 15 c0 -16 -7 -20
-30 -20 -23 0 -30 4 -30 20 0 16 7 20 30 20 23 0 30 -4 30 -20z m-760 -10 c0
-5 -9 -10 -20 -10 -11 0 -20 5 -20 10 0 6 9 10 20 10 11 0 20 -4 20 -10z m100
-72 c0 -13 3 -47 6 -75 l7 -53 -30 0 c-27 0 -30 4 -41 53 -6 28 -14 62 -18 75
-6 20 -3 22 35 22 36 0 41 -3 41 -22z m1508 -29 c2 -14 -4 -31 -12 -38 -11
-10 -17 -8 -30 11 -26 36 -21 60 12 56 21 -2 28 -9 30 -29z m452 -38 c0 -13
-26 -32 -33 -24 -14 13 -6 33 13 33 11 0 20 -4 20 -9z m-1953 -113 c-3 -7 -5
-2 -5 12 0 14 2 19 5 13 2 -7 2 -19 0 -25z m-222 -53 c3 -14 7 -36 10 -50 4
-20 1 -25 -15 -25 -17 0 -20 7 -20 50 0 52 16 68 25 25z m1925 15 c0 -5 -9
-10 -20 -10 -11 0 -20 5 -20 10 0 6 9 10 20 10 11 0 20 -4 20 -10z"/>
<path d="M488 5520 c-97 -17 -178 -51 -223 -94 -57 -54 -67 -93 -55 -221 11
-123 12 -356 1 -412 -5 -24 0 -262 11 -555 18 -485 18 -516 2 -573 -14 -48
-19 -128 -26 -395 -4 -184 -8 -342 -9 -350 -1 -8 6 -118 16 -245 15 -190 16
-242 6 -301 -9 -55 -9 -122 -1 -285 8 -158 8 -309 0 -575 -9 -274 -9 -380 0
-438 7 -49 8 -82 2 -89 -5 -7 -6 -37 -1 -72 10 -78 10 -281 0 -420 l-8 -110
33 -66 c18 -36 49 -80 69 -97 l36 -32 507 0 c281 0 558 5 621 11 296 28 554
148 762 358 156 157 243 312 299 535 44 174 53 310 47 751 -5 427 -11 477 -77
677 -27 79 -114 264 -156 329 -17 26 -16 28 23 90 93 148 157 313 190 494 16
87 18 157 18 555 0 494 -4 541 -61 722 -76 239 -239 476 -408 591 -133 90
-342 168 -551 206 -86 15 -121 16 -231 8 -121 -8 -741 -4 -774 6 -8 3 -36 1
-62 -3z m672 -420 c0 -22 -4 -40 -10 -40 -5 0 -10 18 -10 40 0 22 5 40 10 40
6 0 10 -18 10 -40z m-413 -39 c38 -57 26 -69 -26 -25 -17 14 -31 35 -31 46 0
30 30 19 57 -21z m913 -71 c0 -26 -4 -30 -26 -30 -20 0 -25 4 -20 16 3 9 6 22
6 30 0 8 9 14 20 14 16 0 20 -7 20 -30z m-614 -55 c9 -14 15 -27 13 -29 -2 -1
-22 -16 -43 -32 -23 -17 -48 -48 -60 -76 l-21 -47 -52 45 c-44 38 -53 51 -53
79 0 40 16 55 83 71 84 20 114 18 133 -11z m182 -27 c3 -46 2 -48 -22 -48 -16
0 -26 6 -26 15 0 8 -9 24 -20 35 -34 34 -22 51 35 47 28 -2 30 -5 33 -49z
m-538 -18 c0 -23 -4 -30 -20 -30 -16 0 -20 7 -20 30 0 23 4 30 20 30 16 0 20
-7 20 -30z m794 -20 c18 -7 26 -17 26 -35 l0 -25 -39 21 c-26 13 -38 25 -34
35 6 17 13 17 47 4z m-754 -25 c0 -8 -4 -15 -10 -15 -5 0 -10 7 -10 15 0 8 5
15 10 15 6 0 10 -7 10 -15z m0 -79 c0 -39 -4 -48 -37 -75 -52 -43 -63 -41 -52
10 12 50 34 95 51 102 31 13 38 6 38 -37z m1013 30 c23 -18 12 -46 -19 -46
-20 0 -24 5 -24 30 0 32 14 38 43 16z m285 -19 l62 -12 0 -37 c0 -21 -4 -38
-10 -38 -16 0 -180 94 -180 104 0 5 15 6 33 2 17 -4 60 -12 95 -19z m-108
-117 c0 -5 -13 -10 -30 -10 -16 0 -30 5 -30 10 0 6 14 10 30 10 17 0 30 -4 30
-10z m-514 -25 c145 -28 246 -98 278 -192 22 -64 23 -723 2 -853 -34 -209
-110 -310 -240 -318 -74 -4 -270 29 -323 54 l-38 19 -3 639 c-1 463 1 643 9
652 16 19 214 19 315 -1z m664 -66 c0 -11 -4 -17 -10 -14 -5 3 -10 13 -10 21
0 8 5 14 10 14 6 0 10 -9 10 -21z m-1280 -169 c0 -13 -7 -20 -20 -20 -13 0
-20 7 -20 20 0 13 7 20 20 20 13 0 20 -7 20 -20z m1460 -118 c0 -19 -18 -42
-32 -42 -4 0 -8 14 -8 30 0 23 4 30 20 30 13 0 20 -7 20 -18z m-45 -172 c-3
-5 -13 -10 -21 -10 -8 0 -14 5 -14 10 0 6 9 10 21 10 11 0 17 -4 14 -10z m-55
-45 c0 -28 -4 -35 -20 -35 -16 0 -20 7 -20 35 0 28 4 35 20 35 16 0 20 -7 20
-35z m-1380 -192 c0 -35 -4 -40 -43 -57 -23 -11 -45 -22 -49 -24 -22 -11 -4
52 23 83 42 48 69 47 69 -2z m1280 -144 c0 -5 -11 -9 -25 -9 -27 0 -32 9 -13
28 12 12 38 -1 38 -19z m-1280 -133 c0 -44 -5 -60 -26 -85 -32 -38 -53 -39
-90 -4 -27 25 -28 27 -9 37 11 6 42 32 70 58 27 26 51 48 53 48 1 0 2 -24 2
-54z m1278 -291 c1 -1 0 -10 -4 -19 -7 -17 -50 -22 -73 -7 -9 6 -22 6 -33 0
-15 -8 -18 -6 -18 15 0 24 1 24 63 19 34 -3 63 -7 65 -8z m-1398 -75 c0 -11
-4 -20 -10 -20 -5 0 -10 9 -10 20 0 11 5 20 10 20 6 0 10 -9 10 -20z m1430
-105 c0 -2 -8 -20 -17 -40 -14 -29 -22 -35 -49 -35 -43 0 -50 14 -24 50 17 23
29 30 56 30 19 0 34 -2 34 -5z m-1264 -47 c-10 -52 -26 -58 -26 -10 0 32 4 42
16 42 13 0 15 -7 10 -32z m764 9 c0 -25 -26 -67 -41 -67 -5 0 -9 20 -9 45 0
41 2 45 25 45 19 0 25 -5 25 -23z m240 -27 c0 -5 -9 -10 -20 -10 -11 0 -20 5
-20 10 0 6 9 10 20 10 11 0 20 -4 20 -10z m-762 -27 c2 -9 -9 -13 -37 -13 -30
0 -41 4 -41 16 0 11 9 14 37 12 20 -2 38 -9 41 -15z m807 -61 l50 -38 0 -64
c0 -64 0 -65 -29 -68 -22 -3 -27 0 -23 11 3 9 -12 28 -40 52 -44 37 -45 38
-38 84 11 75 12 75 80 23z m-969 -4 c32 -17 61 -32 63 -34 6 -5 -11 -104 -19
-104 -4 0 -36 20 -72 43 -36 24 -90 54 -121 67 -31 13 -57 27 -57 31 0 4 30
11 68 16 37 6 70 11 73 12 3 0 32 -13 65 -31z m1234 -8 c0 -11 -4 -20 -10 -20
-5 0 -10 9 -10 20 0 11 5 20 10 20 6 0 10 -9 10 -20z m-1480 -58 c0 -36 -14
-62 -32 -62 -4 0 -8 23 -8 50 0 43 3 50 20 50 16 0 20 -7 20 -38z m840 30 c0
-17 -25 -32 -52 -32 -32 0 -37 14 -10 29 20 12 62 14 62 3z m-180 -52 l0 -40
-40 0 c-36 0 -40 3 -40 24 0 31 25 56 56 56 21 0 24 -4 24 -40z m393 -13 c60
-26 62 -40 6 -66 -29 -14 -53 -20 -58 -15 -8 9 6 94 15 94 3 0 19 -6 37 -13z
m-495 -24 c-5 -25 -28 -28 -28 -4 0 12 6 21 16 21 9 0 14 -7 12 -17z m412 -54
c0 -10 -82 -59 -98 -59 -15 0 -16 62 -2 76 12 12 100 -3 100 -17z m430 11 c0
-19 -20 -27 -33 -13 -8 7 11 33 24 33 5 0 9 -9 9 -20z m-1250 -20 c0 -4 -6
-13 -14 -19 -8 -6 -19 -25 -26 -41 -18 -44 -50 -41 -50 5 0 28 4 36 24 41 14
3 27 12 30 20 5 14 36 9 36 -6z m340 -25 c0 -25 -4 -45 -10 -45 -5 0 -10 20
-10 45 0 25 5 45 10 45 6 0 10 -20 10 -45z m-180 -15 c0 -13 -5 -17 -14 -14
-24 9 -28 34 -6 34 13 0 20 -7 20 -20z m350 -25 c0 -14 -3 -25 -7 -25 -11 0
-73 39 -73 45 0 3 18 5 40 5 36 0 40 -2 40 -25z m490 3 c0 -13 3 -33 6 -45 5
-20 2 -23 -20 -23 -24 0 -26 3 -26 45 0 38 3 45 20 45 14 0 20 -7 20 -22z
m310 7 c0 -11 -11 -15 -40 -15 -29 0 -40 4 -40 15 0 11 11 15 40 15 29 0 40
-4 40 -15z m-1070 -55 c0 -13 -7 -20 -20 -20 -16 0 -20 7 -20 30 0 28 2 30 20
20 11 -6 20 -20 20 -30z m330 0 c0 -11 -4 -20 -10 -20 -5 0 -10 9 -10 20 0 11
5 20 10 20 6 0 10 -9 10 -20z m154 -6 c4 -10 -3 -14 -25 -14 -26 0 -29 2 -19
20 11 21 35 18 44 -6z m196 17 c0 -13 -55 -51 -74 -51 -22 0 -21 36 2 49 22
13 72 14 72 2z m-990 -86 c0 -38 -3 -45 -20 -45 -17 0 -20 7 -20 38 0 41 6 52
27 52 9 0 13 -14 13 -45z m248 -22 l-3 -38 -64 -3 c-48 -2 -62 0 -59 10 4 12
103 67 121 68 5 0 7 -17 5 -37z m1112 7 c0 -35 -14 -39 -30 -10 -12 23 -6 40
16 40 9 0 14 -11 14 -30z m-120 -10 c0 -22 -20 -26 -38 -8 -19 19 -14 28 13
28 18 0 25 -5 25 -20z m-455 -187 c56 -29 118 -99 156 -174 31 -62 31 -64 20
-130 -8 -50 -8 -95 0 -171 11 -103 9 -202 -11 -440 -16 -195 -60 -309 -142
-368 l-41 -30 -146 1 c-104 0 -163 5 -206 17 l-60 17 -3 653 -2 654 197 -4
c180 -3 202 -5 238 -25z m-845 -13 c0 -13 -7 -20 -20 -20 -23 0 -26 10 -8 28
18 18 28 15 28 -8z m-80 -130 c0 -32 -4 -40 -18 -40 -17 0 -52 46 -52 69 0 6
16 11 35 11 34 0 35 -1 35 -40z m1600 -56 c0 -13 -4 -24 -10 -24 -5 0 -10 14
-10 31 0 17 4 28 10 24 6 -3 10 -17 10 -31z m-1540 -53 c0 -23 -24 -73 -40
-81 -33 -18 -40 -11 -40 40 l0 50 40 0 c22 0 40 -4 40 -9z m1349 -153 c-4 -24
-8 -49 -9 -55 0 -7 -7 -13 -15 -13 -12 0 -15 13 -15 55 0 51 2 55 24 55 22 0
23 -2 15 -42z m226 -118 c3 -5 -3 -10 -14 -10 -12 0 -21 5 -21 10 0 6 6 10 14
10 8 0 18 -4 21 -10z m-1489 -171 l1 -41 -41 6 c-23 4 -52 17 -65 31 l-24 24
34 9 c19 6 48 11 64 11 29 1 30 -1 31 -40z m1514 21 c0 -13 -7 -20 -20 -20
-13 0 -20 7 -20 20 0 13 7 20 20 20 13 0 20 -7 20 -20z m-160 -165 c0 -18 -5
-25 -20 -25 -22 0 -26 20 -8 38 19 19 28 14 28 -13z m40 -165 c0 -11 -4 -20
-10 -20 -5 0 -10 9 -10 20 0 11 5 20 10 20 6 0 10 -9 10 -20z m-1300 -30 c0
-27 -3 -30 -31 -30 -31 0 -32 7 -1 43 22 25 32 21 32 -13z m-220 -50 c0 -11
-4 -20 -10 -20 -5 0 -10 9 -10 20 0 11 5 20 10 20 6 0 10 -9 10 -20z m1538
-88 c4 -24 -7 -29 -26 -10 -18 18 -15 40 6 36 9 -2 18 -13 20 -26z m-158 -74
c0 -44 -24 -29 -28 17 -3 34 -2 37 12 26 9 -8 16 -27 16 -43z m-15 -154 c15
-11 17 -18 9 -32 -6 -9 -19 -18 -28 -20 -12 -3 -16 4 -16 32 0 40 5 43 35 20z
m-1125 -38 c0 -14 10 -33 24 -44 37 -28 19 -45 -38 -37 -26 4 -45 10 -44 14
10 19 27 58 32 74 8 25 26 21 26 -7z m150 -6 c0 -5 -6 -10 -14 -10 -8 0 -18 5
-21 10 -3 6 3 10 14 10 12 0 21 -4 21 -10z m888 -42 c21 -21 13 -37 -25 -47
-46 -13 -54 -13 -73 -1 -12 7 -11 13 10 34 25 28 68 34 88 14z m-531 -48 c11
-29 10 -30 -18 -30 -26 0 -29 4 -29 30 0 22 5 30 18 30 10 0 22 -12 29 -30z
m-297 -45 c0 -18 -5 -25 -20 -25 -21 0 -24 8 -14 34 10 25 34 19 34 -9z m-60
-25 c0 -13 -7 -20 -20 -20 -19 0 -27 20 -13 33 13 14 33 6 33 -13z m-130 -54
c0 -36 -29 -69 -111 -123 -47 -31 -69 -20 -69 33 0 37 33 68 110 103 62 28 70
27 70 -13z m534 -111 c22 -33 20 -55 -3 -55 -18 0 -51 24 -51 36 0 12 21 44
29 44 5 0 16 -11 25 -25z m-324 -5 c0 -5 -13 -10 -30 -10 -16 0 -30 5 -30 10
0 6 14 10 30 10 17 0 30 -4 30 -10z m-160 -30 c0 -23 -4 -24 -31 -10 -27 15
-24 30 6 30 18 0 25 -5 25 -20z"/>
<path d="M5726 5519 c-178 -23 -426 -144 -635 -309 -90 -72 -247 -338 -313
-532 l-31 -93 -8 -435 c-4 -239 -10 -443 -14 -453 -4 -10 -2 -100 5 -201 10
-144 10 -194 1 -234 -8 -32 -9 -57 -3 -69 5 -11 5 -143 -1 -336 -6 -190 -6
-353 -1 -405 5 -51 5 -109 0 -140 -5 -31 -5 -122 0 -224 6 -106 6 -296 0 -501
-10 -361 -7 -403 41 -550 15 -45 49 -124 75 -175 143 -281 290 -428 560 -557
278 -133 555 -146 878 -43 176 56 302 131 436 260 214 205 336 490 374 868 8
83 10 527 7 1595 -3 1274 -6 1492 -19 1566 -52 293 -231 596 -448 761 -89 68
-247 143 -361 172 -160 41 -384 55 -543 35z m502 -411 c7 -7 12 -20 12 -30 0
-14 -8 -18 -38 -18 -41 0 -62 14 -62 42 0 14 8 18 38 18 21 0 43 -5 50 -12z
m-378 -50 c0 -21 -1 -21 -35 -6 -14 6 -25 19 -25 29 0 15 4 16 30 6 18 -7 30
-19 30 -29z m-330 -28 c0 -5 -9 -10 -20 -10 -11 0 -20 5 -20 10 0 6 9 10 20
10 11 0 20 -4 20 -10z m520 -30 c0 -11 -4 -20 -10 -20 -5 0 -10 9 -10 20 0 11
5 20 10 20 6 0 10 -9 10 -20z m20 -60 c0 -13 -7 -20 -20 -20 -13 0 -20 7 -20
20 0 13 7 20 20 20 13 0 20 -7 20 -20z m-740 -211 c0 -17 -5 -20 -32 -17 -22
2 -34 9 -36 21 -3 14 4 17 32 17 30 0 36 -4 36 -21z m120 -9 c0 -5 -9 -10 -20
-10 -11 0 -20 5 -20 10 0 6 9 10 20 10 11 0 20 -4 20 -10z m1270 -110 c0 -33
-4 -60 -9 -60 -5 0 -19 16 -31 35 -19 31 -20 38 -9 69 11 29 15 33 31 25 14
-8 18 -22 18 -69z m-764 39 c132 -41 218 -99 253 -172 24 -49 28 -160 11 -277
-6 -42 -6 -80 1 -109 7 -31 6 -155 -2 -392 -12 -345 -12 -348 10 -466 l23
-118 -21 -54 c-19 -51 -20 -62 -9 -190 6 -80 8 -204 3 -301 -3 -91 -6 -176 -6
-190 0 -14 3 -122 7 -240 3 -118 1 -359 -5 -534 l-10 -320 -37 -53 c-56 -82
-143 -157 -199 -173 -141 -39 -274 62 -339 257 l-26 78 0 1507 c0 1453 1 1508
19 1567 38 123 119 188 247 200 7 1 43 -9 80 -20z m-813 -176 c4 -2 7 -13 7
-24 0 -13 -7 -19 -23 -19 -28 0 -47 17 -47 42 0 15 5 17 28 12 15 -4 30 -9 35
-11z m167 -142 c0 -15 -50 -63 -62 -59 -20 7 -20 26 1 47 21 21 61 29 61 12z
m-60 -131 c0 -11 -4 -20 -10 -20 -5 0 -10 9 -10 20 0 11 5 20 10 20 6 0 10 -9
10 -20z m1350 -30 c0 -16 -4 -30 -10 -30 -5 0 -10 14 -10 30 0 17 5 30 10 30
6 0 10 -13 10 -30z m-1290 -160 c0 -16 -4 -30 -10 -30 -5 0 -10 14 -10 30 0
17 5 30 10 30 6 0 10 -13 10 -30z m1485 -40 c-3 -5 -13 -10 -21 -10 -8 0 -14
5 -14 10 0 6 9 10 21 10 11 0 17 -4 14 -10z m-1600 -94 c31 -22 12 -48 -32
-44 -33 3 -38 7 -41 31 -3 24 0 27 25 27 16 0 38 -6 48 -14z m-5 -316 c0 -5
-9 -10 -20 -10 -11 0 -20 5 -20 10 0 6 9 10 20 10 11 0 20 -4 20 -10z m160
-80 c0 -11 -4 -20 -10 -20 -5 0 -10 9 -10 20 0 11 5 20 10 20 6 0 10 -9 10
-20z m1310 -30 c0 -5 -9 -10 -20 -10 -11 0 -20 5 -20 10 0 6 9 10 20 10 11 0
20 -4 20 -10z m-1510 -80 c0 -5 -7 -10 -15 -10 -8 0 -15 5 -15 10 0 6 7 10 15
10 8 0 15 -4 15 -10z m80 -290 c0 -20 -25 -38 -36 -27 -8 7 15 47 26 47 6 0
10 -9 10 -20z m1610 6 c0 -8 -4 -18 -10 -21 -5 -3 -10 3 -10 14 0 12 5 21 10
21 6 0 10 -6 10 -14z m-66 -42 c10 -26 7 -34 -14 -34 -15 0 -20 7 -20 25 0 28
24 34 34 9z m-34 -174 c0 -48 -14 -52 -29 -9 -15 44 -14 49 9 49 17 0 20 -7
20 -40z m-1490 -121 c0 -11 -4 -17 -10 -14 -5 3 -10 13 -10 21 0 8 5 14 10 14
6 0 10 -9 10 -21z m1518 -31 c18 -18 14 -38 -8 -38 -15 0 -20 7 -20 25 0 27 9
32 28 13z m-68 -23 c0 -8 -9 -15 -20 -15 -11 0 -20 7 -20 15 0 8 9 15 20 15
11 0 20 -7 20 -15z m-1620 -245 c0 -5 -9 -10 -20 -10 -11 0 -20 5 -20 10 0 6
9 10 20 10 11 0 20 -4 20 -10z m230 -151 c0 -17 -5 -20 -37 -17 -42 3 -47 19
-11 30 40 11 48 9 48 -13z m-217 -92 c3 -7 -11 -22 -34 -34 l-39 -21 0 34 c0
32 2 34 34 34 19 0 36 -6 39 -13z m1763 -34 c8 -31 -6 -57 -32 -60 -21 -3 -69
61 -58 78 3 5 23 9 44 9 35 0 40 -3 46 -27z m-1566 -64 c0 -59 -13 -79 -23
-36 -3 12 -11 36 -18 54 -10 26 -10 34 0 47 24 28 41 0 41 -65z m1330 11 c0
-5 -9 -10 -20 -10 -11 0 -20 5 -20 10 0 6 9 10 20 10 11 0 20 -4 20 -10z
m-1370 -130 c0 -11 -4 -20 -10 -20 -5 0 -10 9 -10 20 0 11 5 20 10 20 6 0 10
-9 10 -20z m-90 -84 c0 -7 16 -31 35 -53 19 -23 35 -46 35 -51 0 -10 -60 -26
-67 -18 -18 18 -30 152 -13 141 6 -3 10 -12 10 -19z m1420 -192 c0 -37 -14
-42 -34 -12 -7 12 -6 21 3 32 21 25 31 19 31 -20z m120 6 c0 -11 -4 -20 -10
-20 -5 0 -10 9 -10 20 0 11 5 20 10 20 6 0 10 -9 10 -20z m50 -40 c8 -14 8
-26 0 -40 -17 -32 -30 -23 -30 20 0 43 13 52 30 20z m-1580 -40 c0 -15 -7 -20
-25 -20 -27 0 -32 9 -13 28 18 18 38 14 38 -8z m-30 -60 c0 -11 -4 -20 -10
-20 -5 0 -10 9 -10 20 0 11 5 20 10 20 6 0 10 -9 10 -20z m1680 -94 c0 -19 -9
-24 -58 -32 -33 -5 -42 -3 -42 8 0 12 32 24 93 37 4 0 7 -5 7 -13z m40 -142
c0 -9 -7 -14 -17 -12 -25 5 -28 28 -4 28 12 0 21 -6 21 -16z m-1530 -110 c0
-2 -13 -4 -30 -4 -29 0 -30 2 -30 43 0 24 3 47 7 50 5 6 53 -74 53 -89z m1230
86 c0 -5 -9 -10 -20 -10 -11 0 -20 5 -20 10 0 6 9 10 20 10 11 0 20 -4 20 -10z
m-1207 -258 c9 -8 17 -23 17 -33 0 -23 -48 -49 -89 -49 -29 0 -30 1 -21 26 17
43 51 85 63 78 7 -4 20 -14 30 -22z m1047 -42 c0 -25 -4 -30 -25 -30 -31 0
-31 7 -3 37 27 29 28 29 28 -7z m78 -77 c-5 -25 -28 -28 -28 -4 0 12 6 21 16
21 9 0 14 -7 12 -17z m-188 -23 c0 -11 -4 -20 -10 -20 -5 0 -10 9 -10 20 0 11
5 20 10 20 6 0 10 -9 10 -20z m-510 -61 c0 -29 -3 -38 -12 -33 -56 31 -66 74
-18 74 28 0 30 -2 30 -41z m-220 13 c18 -15 22 -25 16 -46 -6 -25 -10 -27 -39
-21 -45 10 -47 12 -47 51 0 29 3 34 24 34 13 0 34 -8 46 -18z m-170 -22 c0 -5
-13 -10 -30 -10 -16 0 -30 5 -30 10 0 6 14 10 30 10 17 0 30 -4 30 -10z m1031
-52 c60 -28 64 -53 12 -61 -21 -4 -48 -4 -60 -1 -19 5 -23 2 -23 -15 0 -31
-35 -27 -82 10 -35 28 -38 34 -25 47 12 11 61 27 126 41 2 1 26 -9 52 -21z
m-543 -86 c9 -7 8 -17 -5 -50 -15 -35 -23 -42 -46 -42 -27 0 -28 2 -22 33 12
60 16 67 38 67 12 0 28 -4 35 -8z m252 -22 c0 -5 -13 -10 -30 -10 -16 0 -30 5
-30 10 0 6 14 10 30 10 17 0 30 -4 30 -10z m-480 -84 c0 -8 -4 -18 -10 -21 -5
-3 -10 3 -10 14 0 12 5 21 10 21 6 0 10 -6 10 -14z"/>
<path d="M14026 5516 c-50 -19 -97 -64 -131 -129 l-28 -50 10 -139 c6 -87 7
-158 1 -189 -7 -41 -6 -60 8 -93 21 -53 21 -123 -1 -208 -15 -61 -15 -84 -5
-217 9 -115 9 -209 1 -403 -9 -192 -9 -281 0 -369 9 -86 9 -125 1 -149 -8 -23
-8 -44 0 -82 9 -38 9 -84 0 -192 -9 -106 -9 -172 -1 -257 7 -72 8 -172 3 -274
-4 -88 -6 -194 -4 -235 5 -100 6 -347 1 -555 -5 -236 -6 -553 -3 -695 2 -94 2
-150 -1 -195 -2 -41 -1 -192 2 -235 1 -19 -1 -132 -5 -250 -6 -203 -5 -218 15
-271 24 -62 69 -111 120 -128 45 -15 1519 -16 1573 -1 48 14 94 52 117 99 36
71 43 136 39 400 l-3 253 -46 42 c-32 28 -66 48 -107 60 -55 17 -73 18 -194 7
-73 -6 -207 -11 -298 -11 -165 0 -220 8 -302 43 l-38 16 0 655 0 654 268 4
c289 5 328 11 401 65 66 51 71 73 71 396 0 180 -4 296 -10 308 -31 57 -259
112 -555 134 -44 3 -101 8 -127 11 l-48 6 0 664 0 663 434 3 c500 3 467 -3
521 103 l30 60 3 285 c3 284 3 286 -20 320 -58 86 -114 94 -657 86 -533 -8
-473 -8 -756 -1 -195 4 -247 3 -279 -9z m524 -356 c0 -15 -46 -34 -65 -26 -14
5 -15 9 -5 21 14 17 70 21 70 5z m-60 -75 c0 -23 -4 -25 -45 -25 -38 0 -45 3
-45 19 0 15 8 21 33 24 17 2 38 5 45 5 7 1 12 -9 12 -23z m407 -22 c-3 -2 -13
-3 -23 -1 -16 3 -16 4 2 22 18 18 19 18 22 2 2 -10 1 -20 -1 -23z m123 -3 c0
-11 -4 -20 -10 -20 -5 0 -10 9 -10 20 0 11 5 20 10 20 6 0 10 -9 10 -20z
m-426 -13 c31 -22 10 -47 -40 -47 -42 0 -44 1 -44 30 0 27 3 30 33 30 18 0 41
-6 51 -13z m204 -104 c4 -37 -3 -41 -30 -16 -26 24 -24 55 5 51 17 -2 23 -11
25 -35z m210 25 c7 -7 12 -20 12 -30 0 -13 -8 -18 -30 -18 -32 0 -36 9 -20 41
12 22 21 24 38 7z m-378 -78 c0 -5 -18 -10 -40 -10 -22 0 -40 5 -40 10 0 6 18
10 40 10 22 0 40 -4 40 -10z m-180 -40 c0 -31 -25 -80 -40 -80 -20 0 -70 54
-70 75 0 24 0 24 93 33 13 2 17 -5 17 -28z m-270 -50 c0 -30 -3 -38 -15 -34
-20 8 -29 42 -15 59 21 25 30 17 30 -25z m268 -207 c-5 -26 -38 -29 -38 -4 0
15 6 21 21 21 14 0 19 -5 17 -17z m-38 -238 c0 -24 -5 -35 -15 -35 -15 0 -22
50 -8 63 15 15 23 5 23 -28z m-95 -475 c3 -5 -3 -10 -14 -10 -12 0 -21 5 -21
10 0 6 6 10 14 10 8 0 18 -4 21 -10z m5 -56 c0 -8 -4 -14 -10 -14 -5 0 -10 9
-10 21 0 11 5 17 10 14 6 -3 10 -13 10 -21z m150 -94 c0 -16 -7 -20 -30 -20
-23 0 -30 4 -30 20 0 16 7 20 30 20 23 0 30 -4 30 -20z m-182 -427 c-2 -10
-13 -19 -26 -21 -17 -3 -22 2 -22 17 0 16 6 21 26 21 19 0 25 -5 22 -17z m340
-232 c7 -45 -7 -67 -57 -94 -27 -15 -57 -27 -67 -27 -11 0 -41 17 -69 38 -36
27 -50 45 -50 62 0 22 5 25 38 28 26 2 39 -1 43 -12 9 -23 33 -20 79 9 49 30
79 29 83 -4z m106 -97 c33 -33 11 -64 -46 -64 -35 0 -38 2 -38 30 0 45 52 67
84 34z m146 -71 c0 -22 -9 -33 -42 -50 -31 -18 -44 -20 -54 -12 -27 23 -15 44
39 65 28 12 53 22 55 23 1 0 2 -11 2 -26z m-560 -31 c0 -27 32 -52 74 -59 31
-5 36 -9 36 -32 l0 -27 -85 21 c-81 19 -85 21 -85 48 0 16 5 37 10 48 14 25
50 25 50 1z m560 -53 c0 -17 -4 -28 -10 -24 -5 3 -10 17 -10 31 0 13 5 24 10
24 6 0 10 -14 10 -31z m-352 -4 c36 -10 25 -26 -15 -23 -27 2 -39 8 -41 21 -3
14 1 18 15 14 10 -3 28 -8 41 -12z m352 -66 c0 -14 -5 -19 -17 -17 -26 5 -29
38 -4 38 15 0 21 -6 21 -21z m140 -39 c0 -13 -7 -20 -20 -20 -23 0 -26 10 -8
28 18 18 28 15 28 -8z m-450 -130 c0 -11 -4 -20 -10 -20 -5 0 -10 9 -10 20 0
11 5 20 10 20 6 0 10 -9 10 -20z m-111 -44 c15 -61 7 -79 -33 -70 -45 9 -47
12 -31 44 8 16 15 38 15 50 0 13 7 20 19 20 14 0 22 -12 30 -44z m51 34 c0 -5
-9 -10 -21 -10 -11 0 -17 5 -14 10 3 6 13 10 21 10 8 0 14 -4 14 -10z m-317
-273 c22 -55 22 -57 -8 -57 -23 0 -25 3 -25 50 0 28 3 50 8 50 4 0 15 -19 25
-43z m167 11 c0 -28 -13 -57 -26 -62 -11 -4 -14 4 -14 34 0 33 3 40 20 40 11
0 20 -6 20 -12z m150 -9 c0 -11 -4 -17 -10 -14 -5 3 -10 13 -10 21 0 8 5 14
10 14 6 0 10 -9 10 -21z m-200 -369 c12 -23 6 -40 -16 -40 -9 0 -14 11 -14 30
0 35 14 39 30 10z m4 -203 c12 -44 7 -67 -14 -67 -17 0 -20 7 -20 50 0 38 3
48 14 44 8 -3 17 -15 20 -27z m-24 -622 c0 -18 -17 -28 -36 -21 -11 4 -12 10
-4 25 11 22 40 18 40 -4z m68 8 c-5 -26 -38 -29 -38 -4 0 15 6 21 21 21 14 0
19 -5 17 -17z m192 -203 c0 -5 -9 -10 -21 -10 -11 0 -17 5 -14 10 3 6 13 10
21 10 8 0 14 -4 14 -10z m-220 -37 c0 -5 -13 -24 -29 -43 -25 -29 -31 -32 -45
-21 -9 7 -16 26 -16 42 0 28 2 29 45 29 25 0 45 -3 45 -7z m360 -33 c0 -11 -4
-20 -10 -20 -5 0 -10 9 -10 20 0 11 5 20 10 20 6 0 10 -9 10 -20z m-133 -60
c14 -11 32 -20 40 -20 12 0 14 -8 9 -37 -15 -83 -20 -87 -57 -45 -39 42 -46
55 -54 90 -6 28 -4 32 15 32 12 0 33 -9 47 -20z m133 0 c0 -11 -4 -20 -10 -20
-5 0 -10 9 -10 20 0 11 5 20 10 20 6 0 10 -9 10 -20z m-260 -20 c0 -11 -4 -20
-10 -20 -5 0 -10 9 -10 20 0 11 5 20 10 20 6 0 10 -9 10 -20z m429 -16 c6 -6
-33 -57 -47 -62 -8 -2 -12 10 -12 38 0 41 1 42 27 35 16 -4 30 -9 32 -11z
m-199 -144 c8 -15 5 -25 -13 -46 -19 -22 -29 -26 -51 -20 -24 6 -27 10 -21 34
3 15 13 37 21 50 12 18 18 20 34 12 11 -6 24 -19 30 -30z m420 10 c0 -5 -9
-10 -20 -10 -11 0 -20 5 -20 10 0 6 9 10 20 10 11 0 20 -4 20 -10z m-120 -50
c0 -11 -4 -20 -10 -20 -5 0 -10 9 -10 20 0 11 5 20 10 20 6 0 10 -9 10 -20z"/>
<path d="M22808 5514 c-70 -16 -145 -54 -175 -86 -46 -49 -53 -86 -53 -270 0
-95 -4 -200 -10 -232 -8 -48 -6 -72 7 -120 13 -48 17 -105 17 -261 0 -276 0
-570 0 -830 0 -121 0 -247 -1 -280 0 -33 0 -152 0 -265 0 -113 0 -286 0 -385
0 -327 0 -977 1 -1240 1 -245 -2 -623 -6 -745 -7 -258 -3 -404 15 -462 21 -71
68 -122 124 -137 30 -8 264 -11 805 -9 l763 3 45 25 c35 20 51 38 75 85 l30
60 3 262 c2 167 -1 276 -8 302 -15 55 -50 94 -110 120 -49 21 -55 21 -228 10
-134 -9 -211 -9 -305 0 -93 8 -133 8 -151 0 -20 -9 -38 -6 -102 19 l-79 30 -5
2134 c-4 1780 -7 2137 -19 2158 -29 54 -75 90 -138 110 -49 15 -69 17 -93 9
-21 -8 -69 -8 -161 0 -159 13 -169 13 -241 -5z m322 -700 c0 -13 -4 -24 -10
-24 -5 0 -10 14 -10 31 0 17 4 28 10 24 6 -3 10 -17 10 -31z m-160 -414 c0
-11 -4 -20 -10 -20 -5 0 -10 9 -10 20 0 11 5 20 10 20 6 0 10 -9 10 -20z m20
-830 c0 -43 -3 -50 -20 -50 -10 0 -24 9 -30 20 -9 16 -7 27 10 50 30 42 40 37
40 -20z m0 -150 c0 -5 -13 -10 -30 -10 -16 0 -30 5 -30 10 0 6 14 10 30 10 17
0 30 -4 30 -10z m95 -820 c10 -16 -14 -50 -35 -50 -16 0 -20 7 -20 30 0 25 4
30 24 30 14 0 28 -4 31 -10z m9 -347 c29 -13 33 -19 25 -35 -7 -13 -21 -18
-49 -18 -41 0 -50 13 -34 54 8 20 15 20 58 -1z m-4 -433 c0 -5 -9 -10 -20 -10
-11 0 -20 5 -20 10 0 6 9 10 20 10 11 0 20 -4 20 -10z m40 -573 c0 -21 -12
-28 -27 -16 -19 16 -16 29 7 29 11 0 20 -6 20 -13z m-67 -105 c22 -19 22 -27
-3 -52 -26 -26 -47 -25 -55 1 -4 11 -18 25 -31 31 -32 15 -30 23 9 35 36 11
53 7 80 -15z m228 -187 c7 -30 10 -58 7 -60 -11 -12 -58 19 -54 34 3 9 7 31
11 49 10 47 22 39 36 -23z m-71 -37 c-1 -30 -41 -58 -84 -58 -22 0 -26 5 -26
28 0 16 3 32 7 35 12 13 103 8 103 -5z m247 -30 c-3 -8 -6 -5 -6 6 -1 11 2 17
5 13 3 -3 4 -12 1 -19z m23 -38 c0 -5 -7 -10 -15 -10 -8 0 -15 5 -15 10 0 6 7
10 15 10 8 0 15 -4 15 -10z m-290 -60 c0 -5 -9 -10 -21 -10 -11 0 -17 5 -14
10 3 6 13 10 21 10 8 0 14 -4 14 -10z m160 -19 c0 -4 -5 -22 -11 -40 -11 -30
-13 -31 -70 -31 -68 0 -78 15 -17 25 23 4 50 17 62 30 22 24 36 31 36 16z
m210 -101 c0 -5 -9 -10 -20 -10 -11 0 -20 5 -20 10 0 6 9 10 20 10 11 0 20 -4
20 -10z m0 -50 c0 -11 -4 -20 -10 -20 -5 0 -10 9 -10 20 0 11 5 20 10 20 6 0
10 -9 10 -20z"/>
</g>
</svg>
