<?xml version="1.0" standalone="no"?>
<!DOCTYPE svg PUBLIC "-//W3C//DTD SVG 20010904//EN"
 "http://www.w3.org/TR/2001/REC-SVG-20010904/DTD/svg10.dtd">
<svg version="1.0" xmlns="http://www.w3.org/2000/svg"
 width="2303.000000pt" height="1282.000000pt" viewBox="0 0 2303.000000 1282.000000"
 preserveAspectRatio="xMidYMid meet">

<g transform="translate(0.000000,1282.000000) scale(0.100000,-0.100000)"
fill="#000000" stroke="none">
<path d="M7911 12785 c-18 -8 -43 -15 -54 -15 -46 0 -194 -185 -271 -338 -101
-202 -151 -483 -178 -1020 -18 -355 2 -616 82 -1082 31 -179 98 -400 177 -584
92 -217 316 -530 565 -791 134 -141 502 -483 697 -648 126 -107 150 -132 135
-138 -27 -9 -291 27 -406 56 -125 32 -185 31 -338 -5 -193 -46 -322 -41 -512
21 l-96 31 -156 -36 c-241 -56 -339 -68 -506 -63 -166 5 -301 32 -395 77 -81
38 -111 43 -170 27 -27 -8 -108 -30 -180 -50 -235 -65 -287 -71 -610 -71 -275
0 -294 1 -370 23 -132 39 -137 39 -328 -23 -96 -31 -207 -63 -248 -72 -103
-22 -307 -29 -410 -15 -148 22 -331 69 -357 94 -43 38 -3767 3939 -3770 3948
-2 5 1430 9 3257 9 l3261 0 0 60 0 60 -3365 0 -3365 0 0 -59 c0 -43 4 -60 14
-63 8 -2 2597 -2707 5753 -6013 3156 -3305 5741 -6010 5744 -6010 4 0 2587
2702 5740 6005 3154 3303 5744 6009 5757 6015 19 8 22 17 22 67 l0 58 -7020 0
-7020 0 0 -60 0 -60 6911 0 c4587 0 6910 -3 6907 -10 -1 -5 -885 -934 -1963
-2064 -1369 -1435 -1966 -2055 -1981 -2055 -52 -2 -579 126 -677 164 -60 24
-115 18 -279 -29 -84 -24 -186 -46 -225 -50 -98 -8 -252 10 -338 40 -179 63
-158 60 -235 41 -152 -36 -305 -50 -500 -43 -267 9 -406 27 -487 65 -83 39
-112 39 -361 -1 -180 -29 -217 -32 -427 -32 -251 -1 -325 10 -413 59 -25 14
-51 25 -59 25 -9 0 -56 -19 -107 -41 -193 -88 -439 -157 -588 -166 -56 -3 -98
-2 -98 3 0 5 55 60 123 123 222 206 765 749 929 929 160 176 320 380 456 584
113 168 367 621 422 750 87 207 183 514 221 712 33 169 28 364 -12 455 -64
150 -256 214 -411 138 -75 -37 -137 -94 -274 -253 -166 -193 -241 -265 -438
-422 -287 -229 -389 -295 -591 -382 -65 -28 -124 -55 -130 -59 -24 -20 -166
-74 -254 -96 -53 -14 -129 -34 -170 -45 -41 -11 -87 -20 -102 -20 -14 0 -56
-11 -91 -24 -36 -14 -274 -94 -529 -179 -670 -224 -813 -282 -1005 -412 -163
-111 -262 -193 -431 -359 -167 -163 -203 -209 -244 -309 -12 -31 -26 -54 -30
-50 -3 5 -36 87 -72 183 -124 332 -216 524 -304 637 -167 214 -282 328 -459
459 -66 48 -177 131 -249 184 -71 53 -177 129 -235 169 -58 39 -157 112 -220
162 -63 50 -162 121 -218 157 -57 37 -181 118 -275 181 -95 63 -232 152 -306
198 -160 102 -536 400 -642 509 -121 125 -207 233 -239 298 -21 43 -37 105
-55 211 -14 83 -30 166 -35 185 -33 121 -177 193 -289 145z m264 -885 c18 -30
76 -136 131 -235 85 -156 119 -206 255 -375 297 -370 763 -845 1184 -1205 123
-105 322 -255 340 -255 28 0 2 30 -89 103 -128 103 -277 241 -585 540 -292
284 -302 294 -440 485 -184 255 -231 326 -307 461 -43 75 -103 181 -135 236
-32 55 -56 101 -54 104 3 2 40 -29 82 -70 110 -105 213 -183 488 -370 796
-540 1642 -1194 1763 -1363 47 -65 240 -464 306 -632 103 -262 134 -405 141
-644 l5 -155 -30 105 c-82 286 -140 428 -229 559 -98 144 -335 417 -416 478
-63 47 -223 133 -250 133 -39 0 -4 -36 104 -104 102 -66 166 -128 300 -296
226 -282 265 -363 392 -810 97 -341 119 -430 130 -534 5 -50 11 -109 14 -131
7 -58 -5 -27 -60 150 -81 259 -200 522 -316 695 -74 110 -240 286 -354 375
-93 72 -166 118 -322 204 -206 113 -180 60 39 -78 70 -44 149 -96 175 -116
202 -154 395 -388 492 -596 51 -111 231 -575 237 -614 3 -16 -35 47 -83 140
-152 291 -257 446 -405 597 -72 73 -491 419 -587 485 -38 26 -63 30 -55 10 5
-15 259 -243 399 -359 221 -184 380 -396 556 -743 70 -139 151 -325 195 -450
25 -72 26 -79 14 -131 -7 -29 -16 -54 -20 -54 -4 0 -20 28 -35 63 -123 278
-333 545 -757 963 -176 173 -276 254 -315 254 -20 0 10 -35 175 -202 417 -424
605 -653 730 -888 62 -117 174 -387 170 -409 -2 -9 -31 36 -64 99 -99 186
-251 431 -352 569 -109 149 -287 315 -445 415 -54 35 -86 44 -69 21 4 -6 43
-40 87 -77 169 -139 323 -318 451 -525 200 -322 374 -653 374 -712 0 -27 -67
-287 -80 -311 -7 -12 -11 -8 -20 15 -52 141 -70 185 -120 291 -116 245 -257
454 -410 604 -105 104 -253 196 -234 145 3 -8 28 -31 55 -51 143 -105 362
-414 489 -688 45 -100 130 -320 130 -338 0 -7 -11 0 -23 17 -12 16 -83 107
-157 202 -74 95 -154 203 -178 240 -23 37 -65 94 -93 126 -116 131 -755 677
-794 677 -5 0 28 -36 75 -81 47 -44 78 -77 70 -73 -46 23 -463 359 -566 456
-66 62 -169 156 -230 208 -379 329 -724 663 -879 855 -96 119 -331 463 -372
545 -44 89 -148 371 -173 472 -69 269 -90 874 -40 1163 23 136 48 211 63 196
7 -7 6 -100 -4 -283 -8 -150 -14 -354 -14 -453 1 -164 3 -189 29 -285 63 -240
143 -465 195 -550 15 -25 57 -106 93 -181 63 -132 166 -320 251 -458 46 -77
135 -191 148 -191 5 0 11 11 15 25 5 20 -8 49 -60 134 -126 207 -216 418 -321
756 -51 162 -138 495 -132 502 2 2 26 -58 52 -134 112 -324 244 -621 377 -850
66 -113 91 -143 107 -128 3 4 -11 36 -32 73 -153 269 -352 780 -426 1094 -30
125 -43 198 -36 198 2 0 30 -46 61 -102 222 -400 553 -952 652 -1087 145 -199
552 -680 799 -946 170 -183 197 -208 219 -203 14 2 -32 62 -197 253 -366 425
-560 665 -702 867 -26 36 -188 347 -360 690 -325 648 -363 735 -393 913 -18
101 -14 357 6 425 7 25 14 51 16 59 6 21 34 -7 34 -34 0 -55 49 -201 166 -494
142 -355 158 -388 291 -591 116 -175 184 -269 274 -375 37 -45 148 -203 247
-352 213 -320 357 -521 492 -687 200 -245 320 -366 364 -366 14 0 -4 24 -65
88 -157 161 -291 339 -544 722 -372 564 -622 974 -751 1235 -46 94 -106 210
-134 260 -51 93 -154 325 -190 430 -12 33 -27 101 -35 150 -8 50 -17 105 -21
123 -10 53 24 38 61 -28z m7781 -962 c-3 -35 -8 -95 -11 -134 -14 -189 -184
-590 -374 -883 -49 -75 -111 -174 -139 -221 -132 -225 -323 -451 -717 -849
-721 -729 -1020 -981 -1525 -1283 -154 -93 -344 -189 -521 -263 -160 -67 -242
-111 -329 -175 -82 -61 -226 -209 -315 -323 -47 -62 -70 -85 -76 -75 -14 26
-30 169 -23 215 10 76 62 231 109 325 46 93 131 224 229 353 226 298 661 711
847 805 57 29 87 56 75 67 -10 10 -151 -62 -226 -115 -112 -80 -269 -220 -451
-401 -222 -223 -356 -387 -491 -600 -60 -93 -62 -73 -9 80 50 144 92 235 181
395 213 380 481 734 609 805 49 26 64 49 33 49 -57 0 -218 -146 -353 -320
-279 -360 -519 -797 -594 -1083 -10 -37 -21 -64 -26 -60 -13 14 -39 151 -39
206 0 38 7 68 26 103 14 27 39 90 55 139 150 450 489 852 1065 1261 74 52 134
101 134 109 0 11 -6 12 -26 5 -44 -17 -66 -31 -201 -127 -381 -269 -638 -514
-808 -769 -85 -128 -175 -298 -212 -402 -19 -54 -39 -101 -44 -106 -15 -17
-10 69 11 172 77 378 272 704 645 1078 137 137 219 200 307 235 56 22 78 36
78 50 0 15 -47 10 -101 -11 -95 -38 -200 -121 -375 -295 -321 -321 -502 -585
-595 -868 -20 -61 -36 -94 -42 -88 -5 5 -11 38 -14 73 -4 54 1 83 37 203 23
77 50 154 60 170 11 17 31 64 45 105 64 180 175 341 364 530 233 232 563 494
729 579 42 21 51 34 32 46 -15 9 -125 -51 -265 -146 -431 -292 -765 -622 -891
-881 -16 -32 -33 -57 -39 -57 -28 3 -36 -5 -56 -61 -12 -33 -25 -60 -29 -60
-4 0 -10 60 -14 133 -8 158 1 196 70 307 186 300 483 558 907 790 124 68 137
78 137 103 0 36 -12 35 -124 -9 -193 -76 -460 -240 -620 -380 -98 -85 -218
-225 -308 -359 l-60 -90 6 81 c8 104 18 134 74 214 72 103 302 326 427 414
307 217 553 348 795 425 91 29 316 102 501 162 185 60 421 131 525 158 385
101 596 191 970 412 110 65 206 119 212 119 33 0 0 -38 -120 -142 -73 -62
-182 -151 -242 -198 -60 -47 -166 -130 -235 -186 -70 -55 -275 -200 -456 -321
-308 -207 -475 -331 -475 -353 0 -37 106 16 365 180 351 222 497 324 750 520
167 130 182 140 170 119 -25 -43 -128 -159 -237 -265 -143 -139 -275 -250
-783 -656 -203 -162 -376 -305 -383 -317 -10 -18 -10 -21 5 -21 33 0 237 131
388 249 83 65 195 151 250 191 183 135 498 394 615 505 275 263 490 455 510
455 6 0 10 -8 10 -17 0 -18 -15 -33 -584 -588 -209 -204 -541 -536 -738 -740
-295 -304 -358 -374 -356 -394 2 -14 8 -26 14 -28 11 -4 581 540 1134 1082
415 407 429 419 436 412 14 -14 -24 -73 -128 -197 -163 -196 -246 -285 -880
-950 -156 -162 -183 -199 -159 -215 6 -3 218 204 473 460 343 345 466 475 476
503 8 24 59 83 145 172 95 97 149 162 192 230 109 175 277 424 333 493 61 75
99 91 88 37 -28 -142 -309 -669 -458 -860 -44 -57 -134 -187 -201 -289 -212
-328 -375 -548 -611 -821 -129 -149 -352 -376 -481 -489 -126 -110 -126 -110
-123 -135 5 -36 32 -41 71 -14 80 54 301 253 477 428 290 289 465 502 675 820
356 540 460 719 546 940 63 162 239 480 265 480 12 0 14 -13 10 -62z m-4909
-1270 c94 -144 198 -350 222 -437 22 -78 21 -85 -10 -101 -14 -8 -20 -8 -24 2
-32 96 -92 247 -157 393 -111 251 -109 245 -103 245 3 0 36 -46 72 -102z
m-4345 -1542 c145 -68 219 -81 438 -80 168 0 214 4 330 27 74 14 136 24 139
21 16 -16 -313 -282 -366 -296 -20 -6 -59 3 -144 32 -217 74 -332 137 -452
250 -95 89 -75 106 55 46z m-232 -9 c-9 -7 -69 -53 -135 -103 -66 -50 -130
-103 -143 -116 l-23 -25 -87 13 c-230 36 -552 110 -574 132 -4 4 100 7 230 8
296 1 506 27 664 84 65 23 91 26 68 7z m1357 -75 c21 -11 103 -45 183 -77 80
-31 149 -61 153 -65 5 -4 -22 -13 -60 -19 -37 -6 -142 -22 -233 -37 -91 -14
-226 -44 -299 -65 -117 -33 -140 -37 -173 -28 -21 5 -38 12 -38 14 0 2 47 36
104 75 146 99 201 162 240 274 6 16 10 14 46 -17 21 -20 56 -45 77 -55z m39
68 c84 -29 213 -50 309 -50 63 0 106 7 186 31 139 42 215 47 299 21 117 -36
264 -54 412 -50 l136 3 81 -65 c45 -36 81 -69 81 -73 0 -5 -21 -6 -47 -3 -204
26 -527 25 -878 -5 -147 -12 -152 -11 -218 10 -70 23 -404 176 -421 192 -14
13 -6 11 60 -11z m6969 1 c-17 -29 -532 -318 -730 -411 -160 -75 -307 -140
-316 -140 -5 0 21 39 57 87 66 86 144 230 144 265 0 17 8 18 98 12 57 -4 128
-2 172 5 122 19 357 89 470 141 58 26 106 48 108 49 2 1 1 -3 -3 -8z m-8045
-215 l85 -57 -85 5 c-47 3 -173 8 -280 12 -107 3 -213 9 -235 12 l-40 7 90 57
c50 31 121 83 160 115 l69 59 76 -76 c41 -42 113 -102 160 -134z m9240 199 c0
-2 -30 -22 -67 -44 -87 -51 -254 -123 -461 -196 l-163 -58 -32 23 c-60 44
-268 222 -264 226 2 2 69 -3 148 -12 121 -13 169 -14 299 -4 160 11 402 43
455 59 32 10 85 14 85 6z m-10709 -40 c48 -43 207 -124 314 -159 101 -33 353
-91 509 -116 115 -19 219 -27 676 -50 189 -9 421 -35 448 -49 14 -8 -165 -97
-215 -107 -17 -3 -74 1 -129 10 -172 27 -381 45 -639 56 -295 13 -438 29 -595
69 -202 51 -315 108 -413 206 -46 45 -117 141 -117 157 0 8 33 15 84 17 31 1
46 -6 77 -34z m9745 -146 c44 -41 96 -88 117 -103 60 -46 42 -52 -166 -60
-317 -12 -455 -30 -637 -86 -88 -27 -168 -59 -492 -199 -122 -52 -674 -261
-691 -261 -6 0 23 23 64 52 178 125 356 283 519 463 164 179 165 179 31 -10
-177 -251 -177 -249 -108 -239 120 17 302 82 512 183 161 77 277 146 514 303
l193 129 33 -48 c18 -26 68 -82 111 -124z m3107 144 c4 -2 7 -8 7 -12 0 -9
-388 -335 -591 -497 -75 -60 -178 -134 -228 -164 -50 -30 -152 -94 -226 -142
l-136 -88 -98 95 c-58 57 -106 95 -118 95 -14 0 -22 8 -26 28 -3 15 -8 34 -12
43 -5 14 5 17 67 22 129 10 457 133 722 270 141 73 518 311 552 348 14 15 25
18 48 13 17 -3 34 -8 39 -11z m-903 -18 c130 -55 206 -70 350 -69 111 0 146 4
200 22 35 11 65 20 67 18 6 -6 -289 -168 -420 -231 -163 -77 -407 -175 -608
-243 l-147 -50 -80 80 -80 80 46 20 c190 81 250 119 453 279 84 65 153 119
156 119 2 0 30 -11 63 -25z m-12104 -46 c82 -136 190 -238 322 -302 34 -17 62
-35 62 -39 0 -4 -37 -8 -83 -8 -45 0 -220 -14 -387 -30 -168 -17 -357 -33
-420 -36 l-115 -6 -40 42 c-23 25 -35 44 -28 47 47 17 542 320 618 377 11 9
23 16 27 16 4 0 23 -28 44 -61z m11479 19 c164 -1 241 3 305 15 73 14 104 15
89 4 -88 -72 -291 -198 -407 -255 -54 -27 -115 -59 -135 -71 l-35 -22 -59 49
c-108 90 -188 176 -220 238 -18 34 -33 66 -33 71 0 5 62 0 138 -10 96 -13 203
-19 357 -19z m-506 -82 c32 -69 66 -127 87 -147 19 -18 34 -37 34 -41 0 -4
-30 -8 -67 -8 -97 0 -280 -18 -414 -41 -127 -21 -180 -24 -195 -10 -5 4 -42
21 -81 36 -40 14 -73 30 -73 33 0 4 81 33 180 66 195 63 326 123 405 185 28
22 55 40 61 40 6 1 34 -50 63 -113z m2237 67 c80 -20 143 -40 142 -44 -4 -10
-251 -235 -378 -344 -186 -160 -539 -415 -655 -473 -33 -16 -100 -42 -148 -57
-74 -22 -86 -29 -76 -41 6 -8 8 -14 4 -14 -12 0 -188 86 -209 102 -18 14 -15
17 50 38 92 30 245 107 336 168 87 59 498 404 615 515 45 43 101 103 124 133
23 30 44 54 46 54 3 0 70 -17 149 -37z m-14166 -8 c157 -43 363 -55 533 -31
48 7 87 10 87 7 0 -9 -286 -175 -360 -210 l-65 -31 -73 73 c-93 92 -197 207
-186 207 5 0 34 -7 64 -15z m14498 -72 c40 -9 71 -20 70 -24 -2 -5 -58 -66
-124 -136 l-121 -128 -71 -13 c-40 -6 -113 -25 -164 -42 -51 -16 -94 -27 -97
-24 -3 2 15 24 39 48 25 23 113 109 196 189 108 105 158 147 175 147 13 0 57
-7 97 -17z m-9838 -81 c0 -14 -179 -99 -310 -148 -390 -144 -595 -217 -680
-240 -52 -14 -116 -35 -142 -46 l-47 -20 -242 81 -243 80 54 24 c177 78 414
148 610 181 210 35 651 81 855 89 39 2 87 4 108 5 20 1 37 -2 37 -6z m459 -12
c15 -8 -65 -52 -469 -257 -323 -164 -697 -323 -760 -323 -19 0 -270 88 -283
100 -4 3 43 16 105 29 62 12 215 56 340 97 263 88 461 180 638 298 l115 76
150 -6 c83 -4 156 -10 164 -14z m382 -151 c90 -72 220 -179 288 -238 69 -58
132 -112 140 -119 14 -11 12 -12 -14 -7 -90 20 -310 46 -455 55 -402 24 -804
-36 -1200 -180 -159 -58 -159 -58 -199 -16 l-33 34 69 21 c39 12 73 21 77 21
4 0 51 16 104 36 219 82 401 176 770 398 215 129 205 124 253 125 31 1 56 -15
200 -130z m367 -70 c34 -28 62 -56 62 -61 0 -8 -28 14 -134 104 -6 5 -6 8 0 8
5 0 37 -23 72 -51z m3497 5 c-121 -109 -302 -256 -387 -315 -51 -35 -113 -84
-137 -108 -39 -39 -57 -48 -170 -83 -141 -44 -355 -98 -386 -98 -27 0 117 78
290 157 260 119 305 144 536 299 127 84 242 163 256 174 49 38 48 19 -2 -26z
m1809 19 c17 -9 14 -12 -25 -26 -24 -9 -89 -33 -144 -53 -55 -20 -188 -77
-295 -127 -129 -60 -210 -91 -240 -94 -263 -22 -337 -38 -646 -144 -265 -91
-593 -216 -949 -364 -306 -127 -467 -186 -590 -215 -89 -22 -405 -73 -411 -67
-8 8 16 108 37 156 23 54 119 154 164 171 14 5 123 30 243 55 444 91 833 220
1478 489 390 162 526 202 779 226 123 12 575 7 599 -7z m1066 -52 c89 -31 155
-75 202 -134 39 -50 39 -50 19 -70 -19 -20 -20 -19 -103 21 -136 68 -285 94
-322 56 -23 -23 -20 -85 9 -156 25 -62 22 -88 -10 -88 -26 0 -76 53 -116 122
-52 89 -82 105 -160 82 -28 -9 -98 -35 -155 -60 -147 -63 -223 -81 -449 -110
-328 -41 -457 -63 -646 -110 -188 -46 -209 -50 -194 -35 13 11 455 219 595
279 229 98 524 180 602 168 22 -4 38 -2 38 3 0 30 238 60 455 57 148 -1 178
-5 235 -25z m-9960 -62 c333 -19 618 -63 845 -129 97 -29 387 -125 685 -228
80 -28 186 -57 235 -66 88 -15 93 -15 208 9 65 14 143 31 175 39 51 13 268 55
532 102 180 33 624 16 979 -36 l124 -19 129 -128 c92 -91 133 -140 145 -171 9
-23 13 -45 10 -48 -3 -3 -56 8 -119 25 -181 48 -262 60 -540 78 -194 13 -378
18 -703 17 -490 -1 -677 -12 -868 -50 l-129 -26 -96 28 c-54 15 -142 49 -197
76 -239 115 -872 221 -1535 257 -206 11 -635 -2 -735 -23 -44 -9 -192 -53
-330 -97 l-250 -81 -105 108 c-248 255 -273 283 -259 288 36 13 235 46 329 55
106 10 441 29 625 35 153 5 660 -4 845 -15z m11844 -91 c-59 -62 -112 -116
-118 -119 -6 -4 -90 -15 -186 -24 -96 -10 -178 -19 -182 -22 -5 -2 -8 0 -8 5
0 8 206 171 249 197 9 5 43 13 76 17 33 4 101 18 150 32 50 14 98 25 109 26
13 0 -16 -36 -90 -112z m-8054 -3 c30 -30 52 -55 49 -55 -2 0 -29 25 -59 55
-30 30 -52 55 -49 55 2 0 29 -25 59 -55z m6161 -61 c92 -27 98 -34 87 -96 -15
-79 -3 -270 22 -358 11 -41 43 -120 70 -175 58 -120 236 -411 291 -477 22 -27
38 -48 36 -48 -2 0 -68 11 -148 24 -79 14 -188 30 -241 36 -54 7 -104 17 -112
24 -21 17 -194 397 -216 479 -23 81 -36 240 -26 309 l7 45 40 -11 c39 -10 42
-9 70 22 16 18 29 39 29 48 0 9 -13 46 -30 84 -16 38 -30 75 -30 83 0 29 72
34 151 11z m-351 -63 l20 -30 -52 -48 c-215 -196 -359 -401 -471 -668 -70
-167 -87 -230 -96 -349 l-6 -90 -145 -44 c-377 -113 -576 -176 -705 -222 -77
-28 -180 -60 -230 -72 -49 -11 -96 -28 -102 -36 -7 -9 -16 -12 -20 -8 -15 14
42 98 180 268 470 580 691 797 1009 994 111 68 453 239 511 255 67 18 87 28
87 43 0 8 -8 20 -17 25 -16 9 -17 10 -1 11 9 0 26 -13 38 -29z m542 -36 c14
-14 30 -47 37 -78 39 -175 198 -394 589 -809 l35 -37 -83 -90 c-140 -153 -120
-173 -445 434 -115 216 -145 291 -169 430 -29 165 -19 205 36 150z m195 -88
c62 -82 130 -131 340 -241 189 -99 440 -242 447 -254 2 -4 -53 -65 -122 -136
l-125 -130 -100 105 c-124 129 -320 356 -397 460 -32 43 -79 120 -106 172 -43
84 -47 97 -34 112 16 19 15 20 97 -88z m-667 -2 c0 -8 -8 -44 -17 -82 -24 -99
-22 -285 5 -384 25 -92 79 -202 160 -325 l60 -91 -97 -7 c-196 -14 -469 -66
-620 -117 -30 -11 -55 -19 -56 -19 -11 0 -13 64 -6 137 12 115 56 246 142 418
83 168 171 295 299 428 l94 99 18 -22 c10 -12 18 -28 18 -35z m1636 39 c21
-15 45 -16 176 -10 l152 8 -76 -83 c-55 -61 -84 -86 -109 -92 -45 -10 -392
-13 -447 -3 l-42 8 97 49 c54 27 125 69 158 93 33 25 61 45 63 45 1 1 14 -6
28 -15z m-3357 -8 c-2 -2 -66 -36 -142 -75 -76 -40 -213 -115 -305 -168 -769
-445 -852 -487 -1140 -572 -120 -35 -514 -118 -620 -131 -40 -4 -76 -10 -78
-13 -3 -3 -1 -14 5 -25 37 -68 274 -55 647 38 340 84 408 112 802 334 106 60
195 107 197 104 7 -7 -284 -244 -412 -335 -131 -93 -316 -211 -495 -314 -135
-77 -592 -306 -622 -311 -15 -2 -28 22 -77 152 -33 85 -75 204 -94 263 -33
102 -35 116 -33 220 l3 112 140 8 c274 15 419 57 985 284 184 75 412 164 505
198 147 54 623 214 680 228 25 6 60 8 54 3z m1211 -31 c0 -3 -27 -18 -60 -35
-211 -107 -422 -261 -611 -450 -142 -141 -673 -769 -738 -872 -37 -60 -48 -65
-97 -48 -16 5 -68 21 -116 35 l-87 26 62 53 c116 99 403 459 614 772 109 162
157 249 183 334 16 49 22 56 55 68 58 19 231 48 491 82 132 17 244 32 249 34
15 6 55 7 55 1z m-9247 -35 c334 -22 1092 -122 1227 -163 l45 -13 -65 -8 c-36
-4 -155 -23 -265 -42 -311 -54 -737 -80 -808 -50 -18 7 -54 32 -81 54 -61 51
-120 67 -194 53 -29 -6 -61 -15 -71 -20 -18 -10 -61 -58 -94 -105 -12 -18 -27
-26 -47 -26 -32 0 -50 21 -69 81 -27 86 -75 98 -198 49 -41 -17 -92 -33 -112
-36 -82 -13 -138 54 -104 124 24 49 57 70 128 83 144 27 456 35 708 19z m-893
-136 l0 -66 -76 -71 c-122 -115 -104 -114 -200 -11 -46 49 -83 91 -83 94 -1 7
319 118 342 119 14 1 17 -8 17 -65z m9144 -131 c-182 -267 -435 -605 -609
-813 -101 -121 -123 -151 -130 -182 -8 -33 -24 -35 -80 -9 -45 20 -163 115
-172 138 -4 9 60 79 188 207 302 299 451 491 549 706 11 24 265 107 333 109
28 1 25 -3 -79 -156z m3184 41 c-12 -12 -24 -14 -45 -9 l-28 8 30 7 c54 13 61
12 43 -6z m-11886 -71 c15 -32 34 -70 44 -84 l17 -27 -64 -78 c-102 -126 -239
-274 -252 -273 -7 1 -45 37 -86 80 l-74 78 94 106 c52 58 102 122 112 143 10
20 22 43 25 50 8 16 108 61 137 62 15 0 27 -15 47 -57z m11730 30 c89 -32 93
-35 70 -56 -17 -15 -22 -14 -85 28 -94 64 -92 67 15 28z m-12034 -31 c23 -6
43 -7 47 -4 3 3 5 0 5 -6 0 -13 -20 -34 -133 -142 l-87 -84 -56 55 -55 54 93
87 93 86 26 -19 c14 -10 44 -22 67 -27z m757 18 c22 -10 53 -30 69 -43 l29
-25 -62 -81 c-159 -208 -367 -442 -473 -533 l-48 -40 -73 78 -74 78 62 77 c34
42 104 135 155 207 64 91 101 134 120 140 15 6 42 29 61 52 87 109 147 132
234 90z m7819 -27 c-118 -160 -411 -530 -464 -588 -36 -38 -89 -98 -118 -132
l-54 -61 -96 1 c-88 2 -102 -1 -155 -26 -55 -27 -87 -64 -87 -100 0 -8 14 -41
30 -72 17 -32 29 -59 28 -60 -38 -29 -521 -348 -583 -384 -84 -50 -279 -151
-290 -151 -16 0 -135 326 -135 369 0 14 9 21 32 27 165 36 921 467 1173 669
50 39 186 155 303 256 118 101 229 197 247 212 33 29 143 75 179 76 16 1 15
-3 -10 -36z m-4599 17 c77 -6 250 -17 385 -24 208 -13 264 -19 370 -45 68 -17
146 -31 171 -31 45 0 48 -2 59 -36 7 -19 10 -38 7 -40 -3 -3 -58 2 -123 11
-249 33 -302 37 -409 31 -60 -4 -207 -11 -325 -16 -165 -7 -288 -19 -525 -54
-170 -24 -386 -54 -480 -66 -416 -53 -720 -132 -1174 -306 -327 -126 -542
-221 -894 -396 -186 -92 -342 -168 -348 -168 -9 0 -131 124 -137 140 -3 8 445
263 658 374 80 41 197 98 260 126 151 68 735 310 828 344 142 51 377 102 623
137 46 6 246 15 444 18 198 4 385 8 415 9 30 1 118 -3 195 -8z m-1645 -9 c0
-4 -62 -32 -137 -61 -76 -29 -175 -68 -221 -86 -45 -19 -98 -34 -117 -34 -38
0 -209 64 -238 89 -22 19 -29 17 199 56 203 35 514 57 514 36z m-749 -134 c26
-30 68 -63 97 -77 28 -14 51 -28 52 -31 0 -12 -255 -119 -284 -119 -50 0 -356
198 -356 230 0 19 60 26 425 49 13 0 37 -19 66 -52z m-594 32 c36 -6 63 -16
63 -23 0 -37 66 -110 178 -196 l121 -94 -187 -96 c-103 -53 -301 -161 -440
-238 -139 -78 -257 -142 -261 -142 -3 0 -31 25 -61 55 l-54 55 80 83 c169 172
321 360 429 530 27 42 53 77 58 77 6 0 39 -5 74 -11z m3793 -124 c123 -9 225
-16 226 -18 1 -1 21 -60 45 -132 l43 -130 -2 -250 c-2 -137 -6 -253 -10 -257
-5 -5 -31 4 -60 18 -66 33 -223 202 -278 300 -33 59 -40 81 -45 149 -8 97 -31
147 -92 201 -101 89 -304 115 -544 69 -196 -38 -504 -170 -708 -306 l-110 -73
-135 -7 c-150 -9 -171 -12 -318 -40 -235 -46 -769 -246 -1282 -479 -204 -93
-537 -230 -558 -230 -9 0 -197 200 -191 203 21 14 578 280 684 327 301 133
642 263 937 356 269 85 387 109 853 173 581 81 744 100 970 115 259 18 313 22
336 24 8 1 116 -5 239 -13z m-405 -86 c113 -21 167 -64 205 -166 17 -45 20
-66 13 -93 -11 -49 -41 -51 -114 -5 -97 60 -202 58 -233 -4 -7 -14 -16 -46
-20 -70 -4 -24 -9 -48 -12 -53 -9 -14 -44 22 -44 45 0 11 -17 36 -38 57 -48
48 -106 60 -170 35 -53 -22 -78 -53 -98 -124 -9 -31 -18 -59 -21 -64 -9 -14
-43 15 -63 53 -29 56 -56 70 -172 86 -57 8 -107 16 -112 17 -13 4 103 76 199
125 136 67 361 143 495 165 50 8 128 7 185 -4z m3 -281 c7 -7 12 -23 12 -36 0
-37 94 -209 167 -306 36 -48 100 -122 144 -166 88 -88 159 -129 277 -158 40
-10 73 -21 74 -23 3 -11 -14 -257 -19 -277 -7 -29 -29 -23 -102 26 -84 57
-151 122 -320 312 -185 208 -232 268 -296 378 l-48 83 23 24 c16 17 24 41 28
77 6 72 29 97 60 66z m-318 -57 c0 -32 41 -82 81 -99 36 -16 42 -23 64 -85 31
-89 88 -183 167 -277 34 -42 107 -129 162 -194 147 -176 276 -278 408 -322
l80 -26 -6 -62 c-7 -61 -41 -220 -52 -237 -14 -24 -418 277 -534 397 -146 152
-268 358 -341 577 -25 73 -32 115 -37 215 -4 72 -11 127 -17 129 -43 14 -72
-106 -61 -250 11 -157 121 -422 237 -577 65 -86 198 -217 314 -309 98 -78 330
-234 376 -254 19 -8 47 -30 62 -50 25 -33 32 -36 94 -42 38 -3 77 -11 88 -16
21 -10 -14 -9 -344 12 -130 9 -234 8 -409 0 -210 -11 -237 -10 -244 3 -5 9
-27 37 -50 63 -85 98 -109 179 -182 618 -47 280 -51 336 -31 485 14 104 22
132 46 169 16 25 29 53 29 63 0 26 24 81 45 101 16 17 18 17 36 1 11 -9 19
-24 19 -33z m-504 -1 c27 0 13 -16 -33 -39 -94 -45 -181 -118 -379 -315 -127
-127 -230 -240 -280 -308 -82 -111 -363 -555 -407 -643 -33 -66 -65 -173 -76
-259 -6 -37 -12 -70 -14 -72 -5 -5 -397 145 -410 157 -5 4 22 22 59 40 49 24
99 64 183 143 181 172 272 276 375 429 156 233 400 526 542 649 130 113 269
208 305 209 19 1 48 5 64 9 17 4 36 6 43 4 8 -2 20 -4 28 -4z m1101 -82 c55
-106 184 -235 283 -282 41 -20 89 -39 108 -42 33 -6 33 -7 27 -53 -15 -118
-13 -113 -48 -105 -131 28 -338 235 -511 512 l-26 42 64 0 65 0 38 -72z m-969
3 l42 -59 -70 -57 c-163 -133 -343 -369 -432 -565 -138 -303 -213 -589 -226
-865 l-7 -149 -75 -23 c-41 -13 -84 -23 -95 -22 -11 0 -96 33 -190 73 -199 85
-190 72 -151 222 34 125 85 233 183 386 44 67 104 164 133 213 143 240 248
374 465 590 108 108 195 185 270 238 60 42 110 77 111 77 1 0 20 -27 42 -59z
m7356 35 c128 -21 317 -63 328 -74 5 -5 -53 -74 -133 -158 -165 -172 -135
-161 -334 -123 -120 22 -153 24 -440 24 -271 -1 -328 -4 -454 -23 -285 -45
-528 -121 -749 -234 -73 -37 -137 -68 -142 -68 -6 0 -92 44 -192 97 l-182 97
74 12 c41 6 95 17 120 24 138 37 762 224 987 295 261 83 426 126 558 144 99
14 441 6 559 -13z m-7969 -84 c-106 -90 -180 -162 -259 -251 -65 -73 -109
-113 -130 -120 -17 -6 -96 -17 -176 -26 -198 -22 -293 -44 -515 -119 -251 -85
-432 -161 -645 -269 l-175 -88 -72 77 -72 77 137 52 c75 28 268 108 427 178
360 156 423 182 649 267 260 97 510 177 644 205 118 24 204 32 187 17z m752
-54 c-3 -13 -18 -57 -33 -98 -48 -136 -43 -300 22 -696 41 -255 76 -351 162
-452 25 -29 43 -54 41 -56 -2 -2 -51 -12 -109 -21 -170 -28 -326 -70 -582
-155 -133 -44 -242 -79 -244 -77 -8 7 18 226 36 318 60 295 202 650 344 864
88 130 227 305 285 358 48 43 87 50 78 15z m4049 -13 c20 -8 63 -40 95 -70 84
-77 125 -98 300 -154 328 -105 395 -133 626 -262 155 -86 518 -343 540 -382
33 -60 9 -79 -80 -64 -76 13 -126 39 -221 115 -104 84 -164 115 -282 143 -108
25 -264 30 -314 10 -19 -8 -84 -47 -145 -87 -170 -111 -198 -109 -101 10 65
79 73 99 52 131 -16 25 -109 52 -143 41 -10 -3 -84 -7 -166 -10 -146 -5 -147
-5 -163 19 -8 13 -18 49 -21 80 -5 47 -3 59 14 78 32 34 45 67 39 92 -3 13
-39 53 -80 89 -87 78 -126 142 -109 178 12 27 65 57 101 58 12 0 39 -7 58 -15z
m-86 -326 c0 -9 -14 -34 -31 -55 -29 -37 -31 -43 -26 -103 5 -67 22 -99 71
-135 24 -18 41 -21 127 -19 55 1 99 -3 99 -8 0 -30 -102 -92 -190 -115 -85
-22 -173 -14 -360 32 -205 51 -277 41 -382 -54 -38 -34 -142 -164 -165 -206
-11 -20 -14 -17 -87 116 l-38 68 24 9 c297 125 450 218 827 503 l65 48 33 -32
c18 -17 33 -39 33 -49z m2990 26 c173 -21 210 -27 210 -34 0 -4 -55 -64 -122
-133 l-123 -126 -235 -16 c-129 -10 -381 -30 -560 -47 -290 -26 -373 -35 -501
-56 -34 -5 -46 1 -149 77 -132 98 -140 82 81 158 252 87 555 154 814 181 132
14 460 12 585 -4z m-8154 -100 c-10 -28 -208 -308 -281 -400 -132 -165 -227
-265 -382 -402 l-63 -55 -221 77 -220 78 -110 116 c-60 63 -106 118 -102 122
12 12 311 144 452 201 272 109 528 190 781 248 149 34 154 35 146 15z m5612
-236 c1 -8 -24 -46 -58 -84 -33 -37 -60 -72 -60 -77 0 -23 -18 5 -23 34 -3 26
2 40 24 66 16 18 29 44 29 58 0 23 3 25 42 22 29 -2 44 -8 46 -19z m392 -103
c0 -53 -28 -252 -50 -361 -46 -224 -126 -447 -229 -640 l-59 -110 -59 2 c-32
2 -91 6 -131 9 l-73 6 83 87 c189 200 293 459 328 821 9 101 11 106 42 133 34
29 127 87 141 87 4 0 7 -16 7 -34z m183 13 c60 -15 124 -46 130 -62 9 -24 -40
-345 -72 -469 -65 -251 -185 -530 -268 -625 l-28 -32 -85 20 c-47 11 -102 25
-122 30 l-37 10 46 42 c37 34 62 75 129 212 147 303 214 554 214 813 l0 82 28
-6 c15 -3 44 -10 65 -15z m1751 -61 c-43 -46 -134 -140 -200 -210 l-121 -126
-77 -21 c-42 -12 -87 -21 -100 -21 -62 0 -352 114 -437 172 -43 29 -47 36 -51
79 -4 37 -14 59 -43 94 -20 25 -36 48 -34 50 2 2 119 9 259 15 140 6 370 20
510 30 140 9 282 18 314 19 l60 1 -80 -82z m-3236 33 c21 -13 0 -45 -131 -209
-157 -196 -310 -364 -429 -469 -200 -177 -572 -437 -743 -519 l-116 -56 -192
-19 c-219 -21 -265 -23 -251 -10 5 5 126 71 269 145 200 105 319 176 515 308
292 196 290 194 290 222 0 18 24 31 147 81 80 33 167 73 192 89 25 16 57 32
71 36 20 5 26 14 30 46 6 43 85 167 154 243 41 44 149 121 170 121 6 0 17 -4
24 -9z m250 -67 c7 -5 -149 -196 -242 -299 -213 -235 -348 -373 -445 -458
-148 -127 -373 -293 -450 -331 -36 -18 -80 -41 -98 -50 -37 -20 -210 -36 -200
-18 4 5 36 26 71 45 71 39 299 195 476 325 212 157 531 503 649 705 22 37 49
80 60 96 l20 28 78 -20 c43 -11 80 -22 81 -23z m402 -154 c-14 -80 -104 -311
-171 -440 -60 -114 -159 -250 -249 -341 l-65 -66 -135 -12 c-74 -7 -145 -15
-157 -18 -35 -8 -27 9 18 41 179 126 379 364 493 585 62 121 116 281 116 345
l0 52 78 19 77 20 3 -60 c2 -33 -2 -89 -8 -125z m-208 127 c-6 -7 -25 -53 -42
-103 -45 -130 -160 -355 -237 -464 -38 -53 -127 -155 -203 -231 -134 -134
-221 -203 -305 -240 -40 -18 -234 -46 -450 -65 l-60 -5 90 48 c186 101 332
212 529 403 169 163 453 483 523 588 l55 82 55 0 c44 0 53 -3 45 -13z m598
-41 c0 -57 -63 -336 -107 -471 -59 -183 -188 -381 -288 -440 -40 -24 -45 -24
-193 -18 -84 3 -152 9 -152 12 0 4 27 33 61 66 128 126 215 254 307 450 64
139 99 243 114 340 10 62 14 75 27 69 34 -14 127 -15 171 -1 61 20 60 20 60
-7z m762 -34 c29 -16 84 -37 122 -47 57 -15 72 -24 85 -48 102 -188 267 -353
465 -467 31 -17 56 -34 56 -38 0 -4 -34 -41 -77 -84 -75 -75 -76 -76 -100 -60
-40 25 -220 228 -304 341 -43 58 -104 154 -135 215 -54 105 -68 125 -86 126
-28 0 41 -189 113 -311 49 -85 166 -231 283 -356 47 -50 86 -95 86 -100 0 -10
-172 -183 -182 -183 -11 0 -129 209 -184 326 -58 124 -113 274 -144 394 -15
58 -59 295 -60 318 0 5 10 1 62 -26z m406 -92 c26 -58 271 -180 461 -229 l104
-27 -95 -99 -94 -98 -98 61 c-135 85 -232 169 -337 291 -49 57 -89 108 -89
112 0 7 30 12 110 17 19 2 28 -5 38 -28z m-504 -301 c69 -228 182 -458 319
-647 l39 -54 -38 -40 -39 -40 -179 6 -178 7 -155 74 c-85 40 -157 76 -160 79
-3 3 16 29 42 58 76 85 114 171 302 678 6 18 3 25 47 -121z m-6880 -121 c286
-110 527 -203 534 -205 26 -11 10 -21 -45 -27 -234 -26 -354 -36 -455 -37
l-117 -1 -60 46 c-54 42 -141 129 -356 355 -70 73 -76 83 -51 77 15 -4 263
-97 550 -208z m2844 85 c110 -6 120 -13 87 -60 -22 -32 -94 -43 -260 -42 -129
1 -159 -1 -217 -20 -72 -23 -111 -58 -123 -110 -4 -17 -19 -41 -35 -55 -34
-28 -103 -37 -266 -35 -159 3 -220 -33 -288 -168 -49 -98 -137 -157 -200 -134
-41 16 -108 83 -128 129 -10 23 -23 42 -28 42 -8 0 -121 166 -150 221 -11 20
-10 25 10 41 52 42 484 160 655 178 253 26 643 32 943 13z m287 -56 c60 -25
203 -52 430 -82 178 -23 223 -21 485 21 l35 5 -30 -25 c-16 -14 -57 -34 -90
-45 -33 -11 -98 -33 -145 -50 -202 -71 -514 -80 -664 -17 -46 19 -128 106
-119 126 4 8 7 35 6 58 -1 49 -5 49 92 9z m-147 -144 c60 -80 173 -124 367
-142 100 -10 233 -3 344 19 126 24 117 7 -39 -74 -139 -72 -223 -101 -385
-131 -264 -48 -325 -44 -478 38 -106 56 -179 123 -227 211 -50 90 -51 103 -2
111 20 4 40 7 44 8 5 1 84 2 176 2 l169 0 31 -42z m-1808 -32 c0 -5 -6 -11
-12 -14 -18 -6 -39 3 -32 14 7 12 44 12 44 0z m-110 -46 c-14 -9 -96 -56 -183
-105 -192 -109 -370 -220 -500 -311 -54 -38 -101 -69 -106 -69 -11 0 -165 169
-159 175 7 7 263 99 431 154 124 42 168 52 207 49 45 -3 50 -1 50 18 0 13 10
26 28 34 53 25 197 69 227 69 l30 0 -25 -14z m140 -32 c0 -6 -15 -15 -32 -18
-24 -5 -68 -42 -164 -139 -151 -151 -262 -287 -377 -463 l-81 -124 -49 48
c-27 27 -72 74 -100 107 l-51 59 34 29 c19 16 197 135 395 265 198 130 371
244 384 255 25 19 40 12 41 -19z m1366 -122 c46 -44 94 -75 167 -110 138 -67
225 -85 382 -77 l120 6 -60 -35 c-33 -19 -118 -54 -190 -76 -71 -22 -180 -56
-241 -75 -60 -19 -136 -50 -167 -69 -32 -19 -80 -44 -107 -56 -44 -19 -55 -20
-96 -10 -71 18 -97 35 -158 103 -109 123 -129 193 -104 363 l14 90 78 2 c116
2 172 19 215 63 l36 38 23 -48 c13 -28 50 -74 88 -109z m-1300 -12 l27 -57
-105 -134 c-161 -205 -287 -392 -388 -573 -18 -33 -35 -62 -37 -64 -6 -8 -123
112 -123 126 0 18 198 335 268 430 32 43 107 137 167 208 59 72 113 138 119
148 10 16 12 16 28 -5 9 -12 29 -48 44 -79z m760 54 c-71 -239 -63 -294 70
-448 67 -78 141 -129 215 -148 21 -6 8 -17 -102 -85 -140 -88 -256 -153 -462
-261 l-138 -72 -15 38 c-25 58 -34 149 -24 227 7 58 66 350 86 432 4 14 24 29
59 43 65 27 105 70 144 154 31 69 73 113 117 127 46 13 56 12 50 -7z m-1841
-82 c-6 -4 -40 -19 -77 -31 -66 -23 -68 -23 -88 -5 -11 10 -18 21 -15 23 3 3
38 9 78 12 111 11 112 11 102 1z m5720 -79 l50 -7 -68 -17 c-125 -32 -191 -72
-318 -195 -64 -62 -121 -113 -128 -113 -6 0 -40 9 -74 21 -112 38 -207 13
-315 -85 -34 -31 -72 -56 -82 -56 -12 0 -30 15 -44 39 -35 55 -62 71 -121 71
-68 0 -200 -33 -282 -70 -38 -17 -129 -71 -203 -120 -75 -50 -145 -90 -155
-90 -11 0 -45 14 -75 32 -100 56 -131 69 -188 79 -123 20 -315 -26 -535 -128
-128 -60 -144 -61 -195 -18 -17 14 -52 35 -79 48 -44 20 -63 22 -233 22 -156
1 -190 4 -217 18 -64 34 -80 97 -27 105 71 11 83 24 39 44 -31 14 -25 22 38
55 185 93 602 165 1147 198 58 3 197 15 310 25 113 11 263 24 333 30 70 5 259
32 420 60 161 27 328 54 372 59 86 10 547 6 630 -7z m-4447 -109 c19 -8 54
-18 76 -22 23 -4 40 -12 39 -17 -1 -5 -18 -55 -38 -111 -19 -55 -49 -161 -66
-235 -40 -170 -37 -239 15 -343 l35 -70 -22 -17 c-60 -47 -359 -176 -385 -167
-6 2 -67 64 -137 136 l-127 133 47 86 c84 155 206 356 327 537 l120 178 40
-37 c22 -20 56 -43 76 -51z m4937 28 c101 -34 250 -106 416 -201 79 -45 148
-86 154 -91 6 -6 -1 -19 -17 -36 l-26 -26 -154 91 c-207 122 -338 185 -493
235 -106 34 -125 43 -101 47 64 11 153 3 221 -19z m-433 -22 c11 -6 80 -26
152 -44 215 -53 414 -137 627 -264 116 -68 124 -75 113 -94 -5 -8 -60 -67
-122 -131 l-113 -116 -152 114 c-230 172 -443 310 -630 411 -88 48 -88 48 14
105 59 32 79 36 111 19z m1103 -149 c21 0 26 -3 18 -11 -13 -13 -140 -2 -150
14 -4 7 12 8 48 4 30 -4 67 -7 84 -7z m-1259 -55 c85 -42 414 -259 612 -405
l143 -104 -50 -50 -50 -49 -93 84 c-98 90 -229 200 -338 286 -64 50 -287 195
-349 228 -27 14 -30 18 -20 36 14 27 49 21 145 -26z m-410 -77 l93 -33 10 -47
c6 -25 27 -142 47 -260 35 -211 36 -215 31 -443 -3 -167 -9 -247 -21 -294 -19
-73 -91 -261 -117 -306 l-19 -31 -181 22 c-99 12 -183 24 -185 27 -2 2 16 34
40 71 93 142 173 410 192 642 8 107 -13 545 -30 616 -20 81 -2 85 140 36z
m257 -12 c70 -38 248 -159 379 -259 140 -106 368 -303 368 -318 0 -6 -59 -73
-132 -149 l-132 -139 -39 72 c-144 264 -352 585 -475 731 -34 41 -62 77 -62
80 0 14 50 4 93 -18z m-827 -46 c18 -27 43 -48 76 -63 l49 -22 -7 -40 c-20
-126 -115 -334 -222 -484 -82 -116 -241 -276 -348 -352 -43 -31 -151 -96 -239
-144 l-160 -88 -97 -5 c-63 -3 -98 -1 -98 6 0 5 78 60 173 122 199 130 249
175 361 325 144 193 179 253 250 433 49 124 66 199 56 251 -7 41 -7 42 29 58
50 21 113 42 133 42 10 1 30 -17 44 -39z m374 -269 c0 -326 -4 -366 -60 -557
-39 -130 -88 -238 -163 -357 -31 -48 -57 -93 -59 -98 -4 -11 -648 70 -648 82
0 3 22 18 49 33 27 14 84 51 126 81 257 185 430 420 531 720 29 86 34 117 34
192 l0 90 43 17 c23 9 62 34 87 56 25 21 48 39 53 40 4 0 7 -135 7 -299z m542
-6 c129 -202 255 -417 309 -527 l33 -68 -35 -37 c-252 -270 -455 -473 -472
-473 -22 0 -23 -5 26 130 52 143 67 250 67 484 0 219 -7 281 -65 545 -19 89
-35 170 -35 179 1 27 39 -25 172 -233z m-3247 186 l24 -49 -158 -104 c-122
-80 -268 -160 -619 -336 -253 -128 -465 -232 -471 -232 -10 0 -92 83 -99 99
-1 4 21 13 50 20 126 32 326 127 489 232 52 33 162 94 244 134 83 40 229 121
325 179 96 58 178 105 182 105 4 1 19 -21 33 -48z m1997 -137 c-37 -82 -85
-176 -106 -209 -56 -86 -224 -303 -271 -349 -45 -44 -364 -260 -372 -252 -11
10 191 831 213 868 2 3 23 -4 47 -17 66 -37 152 -58 218 -53 53 4 68 11 196
96 87 58 139 87 141 79 1 -8 -28 -81 -66 -163z m-582 90 c0 -3 -13 -28 -29
-57 -96 -171 -177 -468 -221 -811 -17 -132 -22 -153 -44 -174 l-25 -25 -257
-5 c-221 -4 -256 -3 -252 10 3 8 53 88 110 179 137 215 150 237 323 556 81
149 158 281 170 293 32 30 225 59 225 34z m-1094 -64 c66 0 104 -4 104 -10 0
-16 -135 -148 -223 -218 -108 -86 -298 -215 -452 -308 -129 -77 -576 -304
-668 -339 l-49 -18 -96 103 c-54 57 -97 107 -97 112 0 4 210 111 466 236 489
240 593 297 718 394 l76 59 59 -6 c32 -3 106 -5 162 -5z m659 -125 c-89 -145
-406 -688 -439 -753 -14 -28 -29 -72 -32 -97 l-7 -44 -51 -6 c-28 -3 -147 -14
-264 -26 -117 -11 -279 -31 -360 -43 -81 -13 -148 -22 -150 -21 -1 1 33 22 75
47 99 58 247 168 391 291 62 53 167 141 234 194 142 114 289 259 373 368 33
43 69 87 80 97 21 20 181 97 203 98 6 0 -17 -47 -53 -105z m-337 49 l63 -35
-40 -47 c-79 -94 -359 -360 -456 -434 -55 -42 -140 -113 -190 -158 -167 -151
-391 -307 -633 -440 l-42 -24 -46 45 c-25 24 -81 83 -125 130 l-79 87 107 43
c161 64 517 245 701 356 310 187 507 340 608 473 43 56 38 56 132 4z m1092
-1004 c204 -14 400 -37 545 -64 104 -19 127 -26 144 -47 l19 -24 36 19 c35 19
38 19 228 -4 106 -12 201 -26 210 -31 10 -5 25 -23 33 -39 l15 -30 29 33 c16
17 33 29 36 25 4 -4 -59 -78 -141 -163 l-148 -157 -41 6 c-22 3 -92 10 -155
16 -230 22 -410 42 -640 72 -221 30 -254 32 -545 32 -585 0 -1144 -42 -1527
-113 l-147 -27 -126 133 c-69 73 -124 137 -121 142 11 16 251 90 376 115 269
53 814 106 1091 106 94 0 98 -1 117 -27 l19 -27 39 24 c27 16 62 26 114 30
118 11 382 11 540 0z m85 -444 c327 -45 428 -56 615 -72 112 -9 213 -20 224
-24 17 -6 -14 -42 -210 -248 l-229 -240 -180 -1 c-324 -2 -977 -50 -1528 -113
l-189 -21 -28 29 c-133 137 -540 568 -538 570 7 6 379 65 493 78 491 56 1307
77 1570 42z m313 -666 c-1 -5 -101 -112 -221 -238 l-217 -229 -78 -7 c-115
-10 -439 -53 -619 -81 -87 -14 -161 -25 -165 -25 -8 0 -440 452 -435 456 12
12 1051 108 1337 123 221 12 402 12 398 1z m-723 -765 c-109 -113 -201 -205
-204 -205 -4 0 -75 72 -159 159 l-152 159 63 10 c136 23 639 89 646 85 2 -1
-85 -95 -194 -208z"/>
<path d="M8435 9362 c27 -49 252 -318 379 -452 238 -252 680 -611 794 -645 42
-12 22 13 -45 58 -87 58 -271 206 -408 327 -106 95 -263 261 -555 588 -96 108
-160 172 -172 172 -18 0 -17 -3 7 -48z"/>
</g>
</svg>
